<?xml version="1.0" encoding="UTF-8"?>
<svg xmlns="http://www.w3.org/2000/svg" viewBox="0 0 678.61 84.17">
  <defs>
    <style>
      .cls-1 {
        fill: #645339;
      }

      .cls-2 {
        fill: #e91d2d;
      }

      .cls-3 {
        mix-blend-mode: multiply;
        opacity: .29;
      }

      .cls-4 {
        fill: #e4c99a;
      }

      .cls-5 {
        fill: #61b8e7;
      }

      .cls-6 {
        fill: #f05325;
      }

      .cls-7 {
        fill: #0090db;
      }

      .cls-8 {
        isolation: isolate;
      }

      .cls-9 {
        fill: #fff;
      }

      .cls-10 {
        fill: #dff3fd;
      }

      .cls-11 {
        fill: #449ca4;
      }
    </style>
  </defs>
  <g class="cls-8">
    <g id="Layer_2" data-name="Layer 2">
      <g id="Layer_1-2" data-name="Layer 1">
        <path class="cls-10" d="M42.52,84.17c23.48,0,42.52-18.84,42.52-42.08S66,0,42.52,0,0,18.84,0,42.08s19.04,42.08,42.52,42.08Z"/>
        <path class="cls-2" d="M69.83,39.9c-1.96,7.61,8.1,5.43,8.1,5.43v.03s.08-.03.11-.04c-2.08,6.73-5.06,7.8-5.06,7.8.79.73,1.83.81,2.65.71.77-.11,1.35-.37,1.35-.37,0,0-.02.02-.02.04.08-.03.13-.05.13-.05-6,10.27-21.29,11.58-22.45,11.9-1.17.33-4.28,7.51-5.53,12.58-1.07,4.37-4.93,4.64-5.99,4.62h-.66c-1.05,0-4.92-.26-5.99-4.62-1.24-5.08-4.36-12.25-5.53-12.58-1.17-.33-13.24-.19-20.56-10.67,0,0,.05.02.13.04,0-.01-.02-.03-.03-.04,0,0,.61.19,1.39.2.84-.01,1.85-.26,2.54-1.17,0,0-3.09-.76-6.06-7.88.04.01.08.02.12.03,0,0,0-.02-.01-.03,0,0,9.25.43,7.29-7.18,0,0-22.09-15.92-10.14-36.01l13.07,13.1,23.98,12.72,27.15,11.43h.01Z"/>
        <path class="cls-2" d="M15.89,38.66c1.96,7.61-7.29,7.18-7.29,7.18,0,0,0,.02.01.03-.04,0-.08-.02-.12-.03,2.97,7.13,6.06,7.88,6.06,7.88-.69.92-1.7,1.16-2.54,1.17-.78,0-1.39-.2-1.39-.2,0,0,.02.03.03.04-.09-.02-.13-.04-.13-.04,7.33,10.48,20.4,12.5,21.55,12.82,1.16.32,3.29,5.35,4.54,10.43,1.07,4.37,4.93,4.64,5.99,4.62h.66c1.05,0,4.92-.26,5.99-4.62,1.24-5.08,2.34-9.28,3.51-9.61,1.17-.33,18.47-4.61,24.47-14.89,0,0-.05.02-.13.05,0-.01.02-.02.02-.04,0,0-.58.26-1.35.37-.83.1-1.86,0-2.65-.71,0,0,2.96-1.08,5.05-7.8-.04.02-.08.03-.11.04v-.03s-10.06,2.19-8.1-5.42c0,0,22.09-17.17,10.14-37.25l-13.07,13.1-23.98,12.72-27.15,10.18v.02Z"/>
        <path class="cls-6" d="M50.05,27.43l-7.29,2.09-7.29-2.09"/>
        <path class="cls-4" d="M54.66,43.47c-6.79,2.01-8.01,13.48-8.02,21.43-.24,2.84,0,5.62.19,7.09l-3.97-1.1-3.97,1.1c.21-1.74.51-5.29,0-8.61-.15-7.82-1.63-18.01-8-19.9-10.59-3.14-12.19,5.77-12.19,5.77,0,0,5.31,9.07,15.24,7.02,0,0,.39.47.95,1.34.93,2.61,2.59,8.85,1,16.7,0,0,0,.12.02.34l-.11.64s.34,7.28,7.07,7.28,7.07-7.28,7.07-7.28l-.11-.64c.01-.2.02-.34.02-.34-1.71-8.47.36-15.06,1.21-17.25.35-.51.58-.78.58-.78,9.93,2.05,15.24-7.02,15.24-7.02,0,0-1.6-8.89-12.19-5.77h-.02Z"/>
        <path class="cls-1" d="M49.98,53.89s2.94-10.69,10.8-5.72c0,0-.11,6.16-8.95,4.32l-1.86,1.4Z"/>
        <path class="cls-1" d="M35.74,53.89s-2.94-10.69-10.8-5.72c0,0,.11,6.16,8.95,4.32l1.86,1.4Z"/>
        <path class="cls-9" d="M58.52,50.18c.47,0,.86-.38.86-.85s-.38-.85-.86-.85-.86.38-.86.85.38.85.86.85Z"/>
        <path class="cls-9" d="M31.2,50.18c.47,0,.86-.38.86-.85s-.38-.85-.86-.85-.86.38-.86.85.38.85.86.85Z"/>
        <path class="cls-1" d="M42.86,70.89c-2.56,0-4.05,1.02-4.05,1.02,0,3.83,4.05,5.34,4.05,5.34,0,0,4.05-1.51,4.05-5.34,0,0-1.5-1.02-4.05-1.02Z"/>
        <path class="cls-2" d="M20.61,41.37s15.88-2.43,18.19,16.5l1.37-5.47s-.39-8.21-.45-8.43c-.06-.21-7.1-6.5-7.97-6.94-.87-.45-10.61,0-10.61,0l-.54,4.33h0Z"/>
        <path class="cls-2" d="M66.85,48.8s-15.12-9.21-19.94,9.07l-1.37-5.47s.39-8.21.45-8.43c.06-.21,7.1-6.5,7.97-6.94.87-.45,10.61,0,10.61,0l2.28,11.76h.01Z"/>
        <g class="cls-3">
          <path class="cls-11" d="M35.4,40.03s5.52,2.56,6.04,4.61c-.11-1.56-.64-6.53-2.67-8.2-.21-.15-.33-.23-.33-.23.11.07.23.15.33.23,1.2.9,5.29,4.26,5.65,8.62.08-.03.16-.05.26-.08.39-2.6.76-6.49-.23-8.13-1.18-1.97,2.33,2.52,2.95,7.29,6.34-1.89,12.58-3.37,12.58-3.37-4.23-7.15-11.73-13.32-15.67-16.26-.19-1.14-.32-1.84-.32-1.84,0,0-.41.28-1.13.79-.71-.51-1.13-.79-1.13-.79,0,0-.13.69-.32,1.84-3.94,2.94-11.44,9.11-15.67,16.26,0,0,5.94,1.41,12.11,3.24l-2.45-3.96h.01Z"/>
        </g>
        <path class="cls-9" d="M5.8,6.7s3.56,14.35,10.62,18.68c7.06,4.32,2.55,13.23,2.55,13.23,0,0-18.08-10.86-13.17-31.9h0Z"/>
        <path class="cls-9" d="M79.92,6.7s-3.56,14.35-10.62,18.68c-7.06,4.32-2.55,13.23-2.55,13.23,0,0,18.08-10.86,13.17-31.9h0Z"/>
        <path class="cls-7" d="M45.84,8.98h-6.17c-17.92,2.5-17.46,16.32-16.66,17.65.79,1.33.88,8.71.88,8.71,5.9-9.05,18.87-6.52,18.87-6.52,0,0,12.97-2.53,18.87,6.52,0,0,.08-7.38.88-8.71.79-1.33,1.26-15.16-16.66-17.65Z"/>
        <path class="cls-5" d="M59.45,31.41s-4.91-5.6-16.41-5.95c-11.49.36-16.41,5.95-16.41,5.95-3.58,3.67-5.72,11.15-5.72,11.15l3.78-3.29c7.51-11.66,18.34-8.77,18.34-8.77,0,0,10.83-2.89,18.35,8.77l3.78,3.29s-2.14-7.49-5.72-11.15Z"/>
        <path class="cls-7" d="M65.21,42.02c-10.62-15.21-22.16-13.46-22.16-13.46,0,0-11.86-1.75-22.16,13.46,0,0-.17,2.18,2.04,1.82,2.21-.36,6.85-13.7,20.11-13.34,13.26-.36,17.9,12.98,20.11,13.34,2.21.36,2.04-1.82,2.04-1.82h.02Z"/>
        <path class="cls-9" d="M49.11,15.75c0-2.82-3.07-5.11-6.86-5.11s-6.86,2.29-6.86,5.11,3.07,5.11,6.86,5.11c.41,0,.8-.03,1.2-.08-.09.85-.45,2.55-1.89,3.07,0,0,5.38-.76,5.1-4.19,1.5-.94,2.46-2.34,2.46-3.91Z"/>
        <path class="cls-4" d="M50.51,52.41s1.86-5.96,10.27-4.25l1.35-.81.29-.36s-9.42-3.01-11.91,5.4h0Z"/>
        <path class="cls-4" d="M51.83,52.48s7.83,1.06,8.95-4.32l1.64.33s-1.6,4.64-3.42,5.07c-1.82.43-7.17-1.07-7.17-1.07Z"/>
        <path class="cls-1" d="M36.38,76.95s4.51,3.22,6.47.32c0,0,8.05,3.35,6.31-9.74,0,0,4.54,12.02-6.12,11.38,0,0-3.61,3.17-6.67-1.94h0Z"/>
        <g class="cls-3">
          <path class="cls-11" d="M27.66,26.47s14.2-13.84,30-3.82c0,0,1.65.81,1.72,4.78,0,0-14.22-11.82-31.73-.96Z"/>
        </g>
        <path class="cls-9" d="M113.07,31.35v7.49h18.41v11.11h-18.41v13.98h-14.88V20.24h35.87v11.11h-20.99Z"/>
        <path class="cls-9" d="M136.69,42.08c0-13.23,10.53-22.84,24.9-22.84s24.9,9.61,24.9,22.84-10.53,22.84-24.9,22.84-24.9-9.61-24.9-22.84ZM171.5,42.08c0-6.8-4.41-10.92-9.9-10.92s-9.9,4.12-9.9,10.92,4.41,10.92,9.9,10.92,9.9-4.12,9.9-10.92Z"/>
        <path class="cls-9" d="M221.16,63.93l-7.63-11.67-7.44,11.67h-16.96l15.95-22.03-15.38-21.65h16.71l7.5,10.98,7.31-10.98h16.01l-15.32,21.09,16.27,22.59h-17.02,0Z"/>
        <path class="cls-9" d="M240.81,58.94l2.33-4.87c3.28,2.93,8.89,5.05,14.56,5.05,7.63,0,10.91-2.93,10.91-6.74,0-10.67-26.73-3.93-26.73-20.15,0-6.74,5.3-12.48,16.9-12.48,5.17,0,10.53,1.37,14.19,3.87l-2.08,4.99c-3.85-2.44-8.2-3.56-12.1-3.56-7.5,0-10.72,3.12-10.72,6.92,0,10.67,26.73,3.99,26.73,20.03,0,6.68-5.42,12.42-17.09,12.42-6.75,0-13.37-2.25-16.9-5.49h0Z"/>
        <path class="cls-9" d="M292.56,25.67h-15.13v-5.43h36.5v5.43h-15.13v38.25h-6.24V25.67h0Z"/>
        <path class="cls-9" d="M316.56,42.08c0-12.79,9.96-22.34,23.52-22.34s23.39,9.49,23.39,22.34-9.96,22.34-23.39,22.34-23.52-9.55-23.52-22.34ZM357.17,42.08c0-9.67-7.31-16.79-17.09-16.79s-17.21,7.11-17.21,16.79,7.31,16.79,17.21,16.79,17.09-7.11,17.09-16.79Z"/>
        <path class="cls-9" d="M395.6,63.92l-9.52-13.41c-.88.06-1.83.13-2.77.13h-10.91v13.29h-6.3V20.24h17.21c11.47,0,18.41,5.74,18.41,15.23,0,6.74-3.53,11.61-9.71,13.79l10.47,14.67h-6.88ZM395.41,35.47c0-6.24-4.22-9.79-12.29-9.79h-10.71v19.66h10.71c8.07,0,12.29-3.62,12.29-9.86h0Z"/>
        <path class="cls-9" d="M428.87,48.83v15.1h-6.24v-15.23l-17.53-28.46h6.75l14.12,23.02,14.19-23.02h6.24l-17.53,28.58h0Z"/>
        <path class="cls-9" d="M464.17,25.67h-15.13v-5.43h36.5v5.43h-15.13v38.25h-6.24V25.67h0Z"/>
        <path class="cls-9" d="M520.19,58.5v5.43h-32.02V20.25h31.14v5.43h-24.84v13.41h22.13v5.31h-22.13v14.11h25.72Z"/>
        <path class="cls-9" d="M522.83,20.25h6.3v38.25h23.89v5.43h-30.2V20.25h0Z"/>
        <path class="cls-9" d="M555.66,20.25h6.3v38.25h23.89v5.43h-30.2V20.25h0Z"/>
        <path class="cls-9" d="M588.49,20.24h6.3v43.68h-6.3V20.24Z"/>
        <path class="cls-9" d="M635.37,20.24v43.68h-5.17l-26.48-32.57v32.57h-6.3V20.24h5.17l26.48,32.57V20.24h6.3Z"/>
        <path class="cls-9" d="M672.17,41.84h6.05v17.03c-4.41,3.68-10.53,5.55-16.71,5.55-13.55,0-23.52-9.42-23.52-22.34s9.96-22.34,23.64-22.34c7,0,12.92,2.31,16.96,6.74l-3.91,3.87c-3.66-3.49-7.81-5.05-12.79-5.05-10.21,0-17.59,7.05-17.59,16.79s7.38,16.79,17.53,16.79c3.72,0,7.19-.81,10.34-2.81v-14.23h0Z"/>
      </g>
    </g>
  </g>
</svg>