<?xml version="1.0" encoding="UTF-8"?>
<svg id="Layer_2" xmlns="http://www.w3.org/2000/svg" version="1.1" viewBox="0 0 2167.5 593.8">
  <!-- Generator: Adobe Illustrator 29.1.0, SVG Export Plug-In . SVG Version: 2.1.0 Build 142)  -->
  <g>
    <path d="M1122,426.4l.8-3.3c9.7.8,13.1-4.7,19.7-9.4,1.9-1.3,5.2-.5,4.7-4.3-1.8-9.3-3.4-18.9-5.7-28.1-1.6-6.5-5.5-13.8-6.4-20.6-.9-7.3.7-15.9-1.5-23-.6-2.1-10.8-17.2-12.7-19.6-1.6-2-8.2-5.8-6.1-9.1,1.6-2.4,11.2,4.7,13.9,4.9,0-1,0-2.1-.2-3.1-2.1-9.5-8.3-23.3-11.4-33.2-7.3-23.3-12.8-47.2-22.5-69.5-1.6-3.7-6.3-13.8-8.6-16.4-7.8-8.8-14.9,2.8-22.7,5.3-18.6,6.1-26.3-9.7-43.6-9.7-.8-.8,3.5-12.6,4.5-14.4,7.2-13.6,25.9-33.1,41.2-33,6.8,0,23.6,7,29.5,11,7.3,5,23.9,39,27.7,48.9,4.6,11.8,7.2,24.5,10.3,36.7l4.6-23.8c5.1-8.5,5.6-22.4,10-30.5.7-1.3,1.1-2.5,2.8-2.1.2,3.7-2.1,5.9-3.1,9.4-4.2,14.8-3,24.9-3,40.1,0,13.2-2.7,27.3-.6,40.4,2.6,16,6.9,36.9,11.5,52,1.9,6.1,5.8.2,8.9,1.7,5.4,2.7,12.2,26.8,12,33.6l8.7,32.3c3.3-8.3,5.5-17,8.7-25.4,5.7-14.7,11.5-29.7,17.4-44.2,1.9-4.7,13.4-31.9,15.2-33.4,3.1-2.7,9.8-1.5,13.1.3,4.1,2.3,6.9,27.8,8.3,33.7,2.1,8.9,6.2,18.6,8.9,27.4,3.1,10,3.8,17.8,8.8,27.5.5,1.1,0,1.6,1.9,1.2,1.3-6.2,2.3-12.6,4.1-18.6,6.6-22.4,16.2-44.1,21.6-67,2.2-9.4-.3-16.1-.5-25.1,0-1.9,6.5-23.1,7.5-24.8s7.1-5,9-7.1c5.9-6.6,9-29.2,13.7-38.8.7-1.5,1.9-4.2,3.8-3.8-.6,6.2,4.1,13.7,4.4,19.5.4,7.9-3.8,21-6.1,28.7,3.4-1.7,3.9-6.3,5.7-9.3,1.1-1.8,3.2-3.2,4.5-5.5,1.2-2,.9-4.2,2.5-5.8,6.2,1.7,6.3,10,6.9,15.5.1,1,1.5,1.9,1.3,3.8-.2,1.8-3,5.9-3.8,8.2-4.5,13.1-14.9,38.2-16.8,50.5-1.6,10.2-.6,23.8-2.3,34.3-7.7,6.4-8.3,16-11.4,25.3-4.8,14.3-15.4,40.9-16.9,55.2-.1,1.1-.2,2.1,0,3.2l16.6,1.7c2-3.8,7.3-5.9,9.4-8.4,3.2-3.6,3-13.4,8.8-16.3.1,1.6-.9,3.1-1.6,4.4-5.7,10.7-4.2,11.3-13.3,20.4-.9.9-1.3,2.5-2,3-2.5,2.2-17.2-1.9-22.2-1.4-4.7.5-15.1,4.7-19.4,7.1-4.8,2.7-9.4,9-13.9,10.2-9.4,2.5-4.4-6.7-6.2-13.3-3.2-21-8-41.6-13.6-62.1l-7.2-21.1c-7.6,14.6-8.5,36.9-17.9,49.7-1.2,1.7-3.2,1.8-4.5,4.5-3.8,7.5-4.6,18.7-8.8,26.1l14.6,13c-5.4-2.1-14.3-3.9-18.5-7.9-1.9-1.8-2.7-5.2-5.9-6.3-2.7-1-7.9.7-10.9.4-5.8-.6-11.5-4.2-18.3-1.3-2.9,1.3-3.3,5-6.9,6.6-2.6,1.1-12.9,2.5-15.7,2.5l-15.2-.3h0Z"/>
    <path d="M1688.9,249.1c2.2,2.1,4.2,7.7,5.9,9.3,2.3,2.1,6.4,1.3,7.9,2.9,1.6,1.8,3.5,10.5,3.9,13.3,13.2-12.4,26.3-27,45.7-23.7,3.2.5,14.3,6.6,17.5,8.7,20.9,13.5,15.3,49.5,15.2,71.6,0,18.6.2,37.1,0,55.7.2,1,5.2,1.7,6,6.1.2,1.2-.5,2.5-.4,3.4,1.1,6.9,5.7,6,8.4,12.1-8-.8-8.6-10.7-12.8-16.1-4.3.9-9.3-2.2-12.9-2.3-3.1,0-5.6,2.3-8.7,2.7-5.9.7-11.3-1.3-17-2.2,1.1-6.3,5.3-6.2,10.3-6.6,1.9-3.7-.2-7.3,0-10.7.2-2.3,1.7-3.5,2.1-5.4,1.6-7.5-2.2-11.7-1.8-19.1.4-8.3,2.4-18.3,3-26.7.2-2.6-.2-5.3-.5-7.9l-6.6,17.8c-7.1,9.6-23.8,9.2-27.4-3.7,2.4-3.5,3.2.8,5,1.4,4.6,1.4,12.2-18.6,19.4-20.9,2.7-.8,7.7.3,9.2-3.1.2-.5-.3-10.5-.5-11.8-.6-3.9-4.6-17.3-6.7-20.3-4.6-6.6-15.1-2.3-20.9.2-10.8,4.6-21.7,11.5-27.1,23.1,1,14.6.5,29.6-.2,44.2-.3,5.4-2.2,11.5-1.7,17,.3,4.3,8.9,25,7.8,26.1-2.3.8-3.9-1.6-5.7-1.9-2.8-.5-9.9-1.1-13-1.3-3.7-.1-7.4,1.1-10.5.9-11.4-1-5.4-20.5-5.6-28-.4-11.8-3.2-13-7.2-21.7-1.5-3.3-1.5-12.8-.6-16.1.7-2.4,5.1-1.6,4.9-5-.7-8.3.5-17.6-1-25.9-4.4-24-22.8-34.5-41.3-19-9.1,7.6-18.2,17.7-19.2,30.8-.4,4.7,1,8.6.9,12.3-.2,8.8-2.4,19.7-1.8,28.4.3,5.4,3.5,10.5,3.5,15.2.2,9.6-1.9,21.8-1.3,31.8.1,1.9,3.3,17.7,3.8,18.5,1.2,1.9,6.9-.8,9.4-1.1,1.3-.2,2.6.7,3.9.5,6.2-.8,12-3.9,18.9-2.3l5.3-17.8,2.6.5c-3,6.8-3.6,18.9-11.3,20.6-4.2.9-8.5-.4-12.3.7-3.3.9-14.3,9-16.2,9.5-3.8,1.1-11.2.3-15.4,1-5.2.8-9.4,3.7-14.5,4.4.4-3.1-1.5-6.3-1.7-9.2-.4-5.8,2.2-9.6-2.3-15.4-10.3-13.3-17.7-14.6-18.7-35.8-.4-9.5,4.6-19.3.9-27.4,1.3-1.8,1-1.1,2.3-.6,9.9,4,19.7,27.3,21.9,38.1,1.9,9.2-2,27.3,9.8,27.8,0-3-3.4-3.9-4.1-6.4-1.8-5.6-1.8-16-3-22.3-2.3-11.5-7.5-22.1-13.6-31.9l1.5-14.1-.8-56.2c-.5-.5-10.7,1.7-12.7,1.7-8.9.2-5.4-4.6-6.1-11.5,1.2-2.7,11-4.8,14.1-6.2,8.7-4.1,13.5-10,24.2-8.2,4.7.8,11.3,10.3,12.3,15.2.5,2.4-.4,10.2,2.5,9.6,4.2-4.7,8.3-8.9,13.2-12.8,7.3-5.8,20.5-13.5,29.4-13.9,8.1-.4,26.1,3.5,32.4,9.4h0Z"/>
    <path d="M2031.6,133.6c-1.8,3.9-2.8,11-2.7,15.6.2,6.8,3.6,14.4,4.3,21,1.9,18.1-4.4,32.5-8.8,48.7-2.5,9.1-5.9,31.4-5.6,40.8.2,6.9,1.6,14.4,2.4,21.4,5.2.4,5-5.1,6.6-8.3,10.5-21.3,23.6-36,34.7-56.3,4.2-7.8,7.8-17.8,12.4-25.1,2.5-4,7.4-7.8,9.5-11.3,1.6-2.6,2.2-6.3,3.8-9.1,1.8-3.3,11.6-15,14.5-18,1.2-1.2,15.2-8,16.8-8,1.2,0,2.1,1.7,3.2,1.6,1.7,0,10.2-5.7,12.7-6.8,1.4-.3,3,2.2,3.2,3.3.5,2.8-11.4,21.6-13.6,24.9-5.1,1-10.9,4.2-15.6,5.5-1.3.3-2.5-.5-3.7-.3-7.4,1.2-2.1,4.3-2.4,5.8-.2,1.3-11.1,6.2-10.9,2.2-1.8-.4-6.9,6.1-8.1,8.1-12.4,20.2-23.2,46.8-34.3,68.1-4,7.7-9.9,14.8-13.6,22.9-10.3,22.6-22.6,50.1-31.3,73.3-4.3,11.4-13.2,34.6-15,45.8-1.1,6.5,1.2,15.5.7,21.7-.7,8.1-13.2,23.7-17.6,31.4-12.3,21-24,43.1-34.2,65.3-5,11-11.6,33.9-19.9,40.5-4.7,3.8-11.4,5.8-14.9,11.1-2.9-2.1-6.5-1.4-9.2-2.4-3.8-1.3-7-4.3-11.1-5.2-5.5-1.1-12.2,1.7-13.1-6.3,3-.4,13.4-5.6,14.9-7.7s1.3-8.9,3.6-11.6l11.5-4.8c2.6-8.7,8.1-16,12-23.7,8.8-17.6,15.9-36.3,25-53.8,6.3-12.3,13.5-25.6,22.8-35.4v-1.3c-2.5,0-1.5-6-2-8.9s-4-8.2-.6-9.7c1-.5,4.6,1.2,5.2-1.8.3-1.5-18.5-17.5-20.5-20.6-6.3-10.9-16.2-17.3-22-28.5-13.8-26.7-12.5-57.8-26.8-83.9l-11.7-16.4c12.4,3.2,23.4,10.5,33.9,18.2,17.4,12.8,32.4,29.9,37.2,52.7.5,2.2,1.5,7.4,1.8,9.6,3.5,22.2-3.5,36.4,14.6,53.4.9.8,1.2,1.4,2.6,1l8.7-23.5,14.3-22.1c2.7-4.6,14.5-27,15-30.9s-1.6-10.7-1.7-14.3c0-2.2,1.3-3.3,1.3-5.1,0-2.5-1.8-5.5-2.1-8.1-.9-7.6,2-8.6,3.2-14.3,1.1-5.1,1.1-11.9,2.2-17.4,2.4-12.3,7.3-24.1,5.9-37.1-.6-5.5-4.8-6.9-7.2-11.3s-5.4-15.4-5.8-20.3c-1.4-17.7,9.7-40.2,26-44.4h0ZM1908.7,274.3l-1.7,1.4,6.1,7.9c8.4,16.8,9.7,34.8,14.4,52.5,1.9,7.2,4.7,17.2,10,21.9-7-24.4-7.8-52.9-21.8-74.4-.7-1.1-2.1-1.4-3-2.7-1.1-1.6-2.8-4.8-4-6.7h0Z"/>
    <path d="M1445.3,208.7c.4,3.2-2.8,2.4-4.3,3.3-3.4,2.2-5.5,12.6-9.2,17.3-4.9,6.3-11.6,7-16.1,12.9,7.5-3.5,14.7-8.9,23.2-9.9,50.6-5.9,60.1,72.6,48.9,110.7l-6.7,32.8c-.4-1.9-1.2-3.5-1.7-5.3-7.8-33,6.4-72.6-6.9-103.3-1-2.3-3-6.9-5.4-7.5,2.2,8.4,5.9,18.1,7,26.6,3.5,27.3-3.9,55.4,1,83.1,1,5.7,3.7,10.4,4.9,15.5.6,2.5-.2,5.2.6,7.9.9,3.3,5.4,4.6,4.8,8.5-6.5,0-12.8-5.7-17-10.7-18.1-21.5-23.6-52.1-20.3-80.1,1.7-14.5,8.9-35.1,3.4-49.3-1.7-4.3-13.9-10.4-18.1-10.9-7.2-.8-31.5,12-36.4,18.1-5,6-3.9,8.6-4.8,15.6-2.7,22.3-6.8,47.5-6.1,69.9.1,3.6.9,16.1,1.9,18.8,1.1,2.9,7.3,4.5,8,9.2.2,1.2-.5,2.5-.3,3.4.7,4.1,6.9,5.6,6.9,6.8-1.1.7-1.5,2.6-2.2,3.3-2.2,2-21.4,2.9-25,2.2-1.8-.3-15-4.2-15.8-4.7-1-.7-.3-2.4-.6-2.7-.4-.4-2.8,0-4.3-.7-2.3-1.1-8.2-9.8-8.8-12.9l-8.7,1.7c2.2-3.6,8.7-2.6,8.8-7.8,0-35.1,1.3-70.1,4.3-104.9,1.1-12.2,4.6-21,2.2-33.6-1.1-5.4-4.4-11.6-4.9-16.6-.6-7,1.4-14,1.8-20.8.9-17.2.5-34.5,3.6-51.3l8.4-2.1c1.3-7.8,1.4-17.4,11.5-14.3,14.2,4.3,7.7,20.3,7.8,31.4,0,2.2.9,4.3,1,6.6.3,20.9.9,41.8,1.7,62.5.2,5.4-1.8,15.2,3.5,17.9,1.4.7,4.9,0,7,1.2,1.4.8,2.2,4.1,3,4.2,1.3.1,12.2-6.2,13.4-7.8,3-4.1,4.7-14.6,7.5-20.1,5.3-10.5,16.4-17.2,27.5-13.7h0Z"/>
    <path d="M1879.5,265.8c7.6,9.2,6.7,21.6-2.5,28.8-1.2,1-2.7.5-3.7,1.1-.5.3-.6,2-1.7,2.4s-8.6-1.6-9.6-2.2c-.3-.2-5.3-5.8-5.4-6.2-2.4-7,1.6-17.2,9.5-13.3-1-7.9-6.3-12-12.5-15.5-8-4.5-15.8-5.9-23.3.2-8.6,7-11.9,19.2-9.2,30.6,1.6,6.7,7.3,10.6,12.6,14,18.7,12.2,43.7,11,58.8,32.6,10.1,14.5,8.5,34.8-.5,49.2-3.8,6.1-15.6,13.5-22.4,15.2-27.2,6.9-77.4-1.9-69.5-43.5,2.7-14.1,14.8-16.2,26.2-14.6,7.4,1,17.5,8.7,17.6,17.6,0,8.6-5.4,11.2-12.4,10.9-5.6-.2-10.3-1.1-13.3-6.6-3.9-6.9-2.1-12.1,5.9-11.5l2.2,9.4c8.8-7.6-1.5-17.3-10-11.9-8.5,5.4-3.6,18,.8,24.5,8.4,12.4,27.2,14,39.1,8.1,16.4-8.1,22.9-34.1,8.4-48.4-15.3-15.1-35.6-13.2-54.4-19.4-21.7-7.1-24.2-39.8-7.8-54,20.7-17.8,58.2-20.5,77,2.2h0Z"/>
    <path d="M1580.3,413.4c-4.6-.8-7.1-6.9-11.8-7.7-3.7-.7-8.2,2.6-12,2.3-3.8-.3-9.9-4.3-14.1-4.7-14.3-1.3-30.2,6.1-44.9-2.2-.7-.4-1.8-.5-2.6-.5-.2-3.3,3.6-2.7,5.1-5.3,1.3-2.3,9.5-28,9.8-30.8,2.4-21.6-.4-52,0-74.8,0-2,1-4.1.9-5.6-.3-3.4-9.2-7.4-10.3-12.7-.7-3.5.2-17.2,3-19l29.3-8.9c4.9,3.1,5,8.8,7.4,13.9,1.3,2.7,4.7,6.4,5.6,9.2,1.3,3.9,1.4,25.3,1.6,31.4.8,31.5-1.2,63,1,94.4,2.4,3.7,9.2,11,13.3,10.9,1,0,2.2-1.4,3.5-1.5,3.2-.2,10.5,6.1,13.2,8.5,1,.9,2.4,1.1,2,3.1h0Z"/>
    <path d="M1536.1,177.8c1.8,2.4,7.5,3.3,10.2,2.3-1.1,4.6-.4,12.7,4.4,13.8-.9,7.4-5,17.5-.9,24.6-3.8,1.8-6.2,2.9-8.2,7-.5,1,.5,2.6-.4,3.3-1.3.8-2.5-.4-3.6,0-1.3.5-3.3,4.4-5.4,5.3-5.2,2.2-13.1.2-17.6-3.4-4.9-3.9-6.8-12.1-13.5-10.6-.8-2.1,1.2-4,1.3-5.2.2-1.7-1.3-5-1.4-7.6-.1-3.4,1.1-6.4,1-9.5-.1-3.5-2.8-5.7-1.7-9.3,1-3.4,3.2.4,4.2,0,1.6-.7,2.7-3.9,3.5-5.5.7-1.3,2.8.2.8-4.4l-1.7,2.8c-.2-1.4-.1-4.3,1.3-4.7,3.1-.9,2.3,3.4,4.2,2.8,4.7-.4,5-7.3,9.1-8,.9-.2,8.8.6,10,1.1,4.4,1.9,2.8,3.3,4.4,5.3h0ZM1524.5,187.4c-3.8-1.9-2.2-2.7-4.4-5.2-4-4.6-7-.6-10,3.1-12.7,15.6-6.5,42.8,15.3,40.9l-.8-25,1.6-10v34.5c0,4.6,12.4-1.8,14.4-4,7.9-8.3,7.6-36.2-4-41.3-4.5-2-5.8,8.8-11.5,7.9-.6-.1-.6-1-.6-1,.6.4,3.2.6,2.6-1.4-.8-2.7-4.5-6-3.5-10,3.6-.6,5.6.6,8.7,2,0-5.3-11.1-4.9-12.1-1.5-.3,1.1,3.8,10.5,4.3,10.8h0ZM1527.2,231.9c-.6-4.8-3.2-1.8-5.6-2.1-2.5-.3-4.9-2.1-7.5-1.9,3.2,4.9,12,6.4,16.7,4.7.8-.3,3.3-1.4,3.3-2.5h-5.5c0-.1-1.4,1.8-1.4,1.8h0Z"/>
    <path d="M1101.4,299c.9.7,2.1.7,3.2,1.7,2.9,2.7,4.9,6.4,7.8,9.2-3.2.8-6.9.4-9.9.9-1.9.3-3.5,1.4-5.4,1.6-10.9,1.3-21.8-7.5-25.6-18.3,9.8-1.4,19.1-3.2,28.2,2.5.8.5,1.1,1.9,1.7,2.4h0Z"/>
    <path d="M1513.4,190.3c3.1-3.3,7.9,1.3,5.1,5.1-3.2,4.3-8-2-5.1-5.1Z"/>
    <path d="M1534.7,191.4c4.3-1.4,6.5,5.4,2.3,6.5-3.4.9-5.3-5.5-2.3-6.5Z"/>
    <path d="M1509.9,207.2c1.6-1.7,7.3-.1,5.5,3.7-2.3,4.9-8.5-.5-5.5-3.7Z"/>
    <path d="M1535.8,212.2c1.9,1.3-.7,7.9-4.3,5.1-3.1-2.4,1.1-7.3,4.3-5.1Z"/>
  </g>
  <path d="M1059.3,221.4c-8.4,9.8-16.4,24.4-23.6,35.6-8.8,13.7-14.5,24.4-22.4,38.4-18.8,33.4-38.9,63.9-62.5,92.9l-37,41.1c-10,7.3-16.5,15.7-26.4,2.7-12.4-16.2-7-43.8-3.4-62.8.4-2-.1-4.1.3-5.9.8-3,8.5-6.5,11.1-8.5,8.3-6.5,14.9-16.4,21.7-24.4,33.2-39.1,60.1-74.7,84.3-121.1,4.7-9,7.9-20.3,12.2-29.7,15.3-33.6,33.5-64.9,40.3-101.8,2.4-13,4.8-27.1-1.1-39.1-6.3-12.9-15.8-13.1-27-6.3-21.1,12.8-42.8,45.3-56.3,66.9-39.2,62.9-72.8,134.3-92.8,206.9-3.4,12.3-6,25.1-9.5,37.3-2.3,8.2-3.4,10.6-11.6,11.8-6.8,1-12.6,1.4-18.6-2.2-24.4-14.7.2-64.5,2.9-86.8.8-6.8-1-9.3-3.8-14.9-6.6-13.6-12.6-25.2-28.8-24.2-27,1.6-55.7,32.4-68,56.6-5.7,11.1-6.8,21-14.8,30.9-3.5,4.3-9,11.2-14.8,7.6-4.9-3-3.1-12.1-2.2-17.2.8-4.6,6.8-24.6,9.4-27.3,2.3-2.4,5.2-1,4.8-6.6-.2-2.7-5.9-10.6-7.4-14.6-5.8-15.2-4.2-24.7-4.9-39.7-.3-6.7-2.5-10.8-9.3-11-2,0-6.2,1-7.9,2-3.8,2.2-1.8,9.5-2.7,13.5-1.6,7.1-7.2,18.6-9.8,26.1-6.1,17.9-11.2,36.4-18.8,53.8-3.4,7.7-8,18.3-11.8,25.6-7.4,14.2-21.4,23.3-26.8,1.9-5.9-23.6-1.3-47.6,3.6-70.9,1.2-5.8,6.2-15.5,2.2-20.3-5.7-6.9-15.9-8.5-22.4-2-5.4,16.8-6.7,34.5-11.6,51.4-5.8,20.4-12.3,40.7-27.1,55.9-1.8,1.9-10.3,8.9-12.3,9.6-6.7,2.3-10.8-11-11.6-16.3-1.9-13.7.8-22.9,2.1-35.9.3-3.2-.3-7.8.1-11.5.8-7.8,4.9-22.2,3.2-29.3-.4-1.4-1.8-3.8-3-4.5-1.9-1.1-12.9,1.8-15.4,2.8-6.3,2.7-9.3,20.3-11.3,26.8-5.4,17.6-8.9,36.5-21.4,50-4.6,4.9-17.1,8.3-22.5,4.5-3.6-2.6-5.6-12.9-6.1-17.5-3.7-32.5,3.1-65.3,10.9-96.5,1-4.1,1.4-11.2,2.9-14.8,1.7-4,15.9-4.8,19.6-5.6,36.7-7.5,73-17.9,110-24.5,4.1-.7,8.9-.5,12.8-1.1,87.9-15.4,186.7-37.9,272-2.9,5.1,2.1,9.2,5.5,14.5,6.4-8-13.4-19.6-21.1-32.7-27.7-28.7-14.4-62.9-20.1-94.8-18.9-16.9.6-30.6,3-47.1,5.9-53.1,9.3-106.3,17.9-159.2,28.1-30.9,5.9-60.9,15.3-91.6,21.9,0-.8-.4-1.6-.4-2.4.9-13.5,6.6-35.4,10.1-49,1.7-6.7,8.9-22.6,3.6-28.1-7.6-3.7-12.2-10.7-21.6-8.1-1.5.6-3.9,7.9-4.6,9.9-9.5,25.1-14.2,52-22.3,77.5-12.9,3.4-26.2,10.7-39,13.5-3.4.7-7.8.5-11.2,1.3-19.2,4.4-42.1,12.7-61.6,9.9-7.7-1.1-16.6-8.9-22-14.5.6,3.3-.8,6.6-.8,9.7.1,7.5,6.6,22.1,13.1,25.5,12.8,6.7,36.2,6.3,49.8,2.5,12.2-3.4,23.2-5.4,35.5-8.1,8.2-1.8,18.5-6.2,27-6.4,2.4,0,2.7,1,2.4,3.3-1.4,8.9-5.9,19.8-8.3,28.5-5.5,19.8-16.5,73.7-33.3,83.6-3.9,2.3-6.2,3.4-9.9.3-9.5-8-5.3-33-2.9-44.3,1.7-8.2,7.1-21.3,7.6-28.5.5-6.4-3.5-10.6-9.4-8.5-.4.2-7.7,4.9-8.1,5.2-4.1,3.7-2.3,13.3-8.9,5.6-4.8-5.7-3.9-8.9-12.1-12.4-9.1-3.9-28.4-1-36.2,5.3-14,11.2-19.4,18.7-28.2,34.6-.5,1,.1,2-1.8,1.6.3-3.7,2-7.2,2.7-10.7,1.9-8.8,3-18.3,4.3-27.3,4.4-30,6.2-58.7,16.4-87.5,5.2-14.7,11.7-25.5,28.2-23.7,7.9.8,17.6,10.4,18.4,18.8.5,4.9-.8,19.1-4.8,22.1-3.2,2.4-10.5,2.6-14,1.4-2.6-.9-6.1-5.6-6.5-8.5-1.7-11.8,2.2-21.3,14.4-16.1-4.2-14.1-20-12.3-26.6-.7-5.3,9.3.2,27.6,6.8,35.1,4.4,5.1,10.9,3.8,16.6,3.7,1.5,0,2.9.8,4.3.7,3.9-.2,11.7-4.6,14.4-8,5.8-7.3,9.5-18.3,9.2-27.7-.5-11.2-6.5-20.5-13.1-28.6-8.5-10.5-17.6-11.6-29.9-9.3-44.5,8.2-50.5,92.3-57,129.9-3.7,21.3-7.4,42.8-11.4,64.1-.2.9-.3,1.9-1.4,2-5.5-10-12.4-19.2-17.7-29.3-11.8-22.4-24-50.4-32.1-74.7-5.3-15.9-11.3-35.8-10.1-52.8.9-12.1,7.3-21.6-.4-32.2-2.8-3.9-7-6.6-11.9-4.2-4.5,2.3-10.6,25.3-12.5,31.1-1.5,4.5-4.4,9.9-5.5,14.3-2.3,9.1-2.8,19.9-4.1,29.1-3.9,26.5-5.8,53.3-9,79.9-2.4,19.6-5.8,39.2-9.1,58.7h0s-18.8,107.8-18.8,107.8c-7.6,22.6-13.9,46.2-27.4,65.5-5.5,7.8-11.3,13.5-20.3,15.7-11.2,2.6-21.5,3-30.6-5.2-5.5-5-10.1-13.3-11.7-20.7-3.6-16.8,5.7-39.7,21.4-45.4,1.5-.5,13.6-1.7,15.3-1.6,9.9.8,15.2,19.8,12.9,28.4-3.8,14-23.4,17.1-25.2,1.3.7-2.5,4.4-4.6,6.6-4.7,2.4-.1,4.4,2.6,6.8,1.8-.3-8.7-15.7-11.7-20.6-7.2-1.3,1.2-1.9,3.1-2.9,4-.6.6-1.8,0-2.2.7-.3.6-3.1,7.7-3.2,8.3-.8,5.6,2.2,13.6,6.1,17.4,6.1,5.8,13.4,8.3,21.6,5.9,25.6-7.7,36.3-39.2,19.6-61.6-5.2-6.9-20.1-16-28.6-14.9-5.2.7-22.2,7.4-26.6,10.6-16.4,11.7-18.9,30.7-19.6,49.9,0,1.2-1,2.1-1,3.6,0,2.1,4.2,15.7,5.2,18.4.3.8,1.3.9,1.4,1.2h0c1,2.5,1.2,5,2.8,7.4,3.3,5.1,16.8,13.9,22.2,17,11,6.3,27.1,1.9,38.8-1.8,12.9-4,24-11.8,32.1-23.4,12.1-17.3,22-38.4,29-58.6l15.5-60.9c.9-11.3,3-22.4,4.8-33.6,5.6-35.5,7.9-72.4,16.1-107.2.2-.8-.3-2.5,1.2-1.8,3.4,1.4,8.6,19.6,10.4,23.7,15.3,36.1,35.5,73.9,60.5,102.1,13.7,15.5,24.4,18.5,44.6,14.1,4.7-1,13-3.4,15.7-7.8h0s-14.8.2-14.8.2c-3,0-13.3-7.5-15.5-10.3-2.5-3.2-6.9-14.7-7.6-18.9-1.8-10.7,1.3-24.6,3.3-35.1l1.6,13.4c4.5,18,8.7,38.4,29.7,39.2,6.4.2,18.4-2.4,24.4-5.2,4.7-2.1,16.9-14.8,19.6-19.5,1.5-2.6,5.5-15.8,6.2-16.4,3.9.5,2.5,5.9,3.1,8.7,1,5.1,4.4,10,8.5,12.5,9.5,5.8,21.3,9.8,31.3,2.2,4.6-3.5,19.7-27.4,22.5-33.6,3.9-8.5,6.6-19.8,9-28.9,2.7-.6.5,2.3.7,4.2,2.8,31.8,14.7,55.6,48.5,44.6,6.9-2.2,12.2-7.8,18.4-11.5,4.6,9.6,7.3,18.9,17.5,22.9,13.1,5.2,24.8,6.8,38.3,1.4,14.9-6,25.7-22.2,32.4-37.1,3.5,7.3,4.4,14.7,10.8,20.1,19.8,16.5,46.2,4.4,59.6-15.3,4.6-6.8,4.9-11,7.8-17.9,7.1-16.9,15.1-33.3,22.2-50.3.4-.9,0-1.9,1.4-1.6l1.8,5c-2.2,8.5-5.1,17.6-6.9,26.2-2.2,10.4-7.4,30.7,1.5,38.1,9.8,8.2,21.4,1.1,30.3-5,2.1,3.8,2.6,8,4.8,11.8,2.5,4.4,8.1,9.9,12.4,12.2,23.2,12.2,43.1,1.6,60.9-15.6.6-.6.5-1.2,1.7-.9-.3,12.1,4.3,21.7,13.8,28.9,13.4,10.2,25.2,10.1,41.1,10.8-1.9,17.5-.8,35.6,4.5,52.2,4.9,15.3,14.2,26.4,30.4,25,3.8-.3,10.1-1.1,11.7-5.5l18.4-8.8h0c.5.8,6.6-5.9,7.2-6.7,10.6-12.2,23.1-23.4,32.5-37,14.9-21.6,30-44.1,44.4-66.3,18.4-28.5,31.3-63.2,44.8-94.6,1.9-4.4,6.3-10.1,6.5-14.9.2-4.2-2.9-1-4.4.8ZM894.3,324.2c.7-7.8,5-16.1,7.3-23.4,7.6-25.1,14.3-50,26.1-73.3,13.5-26.6,25.7-54.2,40.3-80,8.6-15.2,17.5-32.7,28.5-45.9,1.6-1.9,22.1-24.9,23.5-22.8,0,1.6,0,3.2-.2,4.9-4.5,32.2-16.7,71.4-31,100-20.3,40.5-43.8,83.7-71.6,118.6h0c-2.2,2.8-4.3,6-6.7,8.8-2.1,2.5-13.2,14.3-15.1,15.1-1.4.6-1.2-.9-1.1-1.9ZM364.5,318.7c-4.5,12.9-13.4,34.5-28.1,36.2-4.8.6-10.6,1-14-2.7-9.4-10.3-13.3-30.7-10-44.6,3.3-13.8,14.6-30.9,27.7-35.1,2.1-.7,11.1-1.1,13.3-.7,3.5.6,8.7,4.2,11.3,6.9h0c1,1,3.1,3.1,3.5,4.3,3.8,11.3.3,24.8-3.6,35.8ZM807.9,310c-3.6,6.6-20,27.4-26.3,29.6-7.4,2.6-14.7,2.7-21.6-1.4-10.1-6-6.3-26.9-3.3-36.9,4.5-14.9,18.6-35.8,30.3-45.2h0c4.6-3.7,14.6-6.7,20.3-6,6.4.7,9.5,9.8,9.8,15.8.4,9.1-4.8,36.2-9.1,44Z"/>
</svg>