<?xml version="1.0" encoding="UTF-8"?>
<svg id="Layer_2" data-name="Layer 2" xmlns="http://www.w3.org/2000/svg" xmlns:xlink="http://www.w3.org/1999/xlink" viewBox="0 0 180.99 55">
  <defs>
    <style>
      .cls-1, .cls-2 {
        fill: none;
      }

      .cls-3 {
        fill: #231f20;
      }

      .cls-2 {
        stroke: #231f20;
        stroke-miterlimit: 10;
      }

      .cls-4 {
        fill: #fff;
      }

      .cls-5 {
        clip-path: url(#clippath);
      }
    </style>
    <clipPath id="clippath">
      <rect class="cls-1" width="180.99" height="55"/>
    </clipPath>
  </defs>
  <g id="Layer_1-2" data-name="Layer 1">
    <g class="cls-5">
      <g>
        <path class="cls-3" d="M84.7,3.26c0,.11.05.14.15.14h.53v.51h-2.14v-.51h.53c.1,0,.15-.03.15-.14V.52h-1.36c-.16,0-.17.02-.17.15v.54h-.6V0h5.02v1.21h-.6v-.54c0-.13-.02-.15-.17-.15h-1.35v2.74h0Z"/>
        <path class="cls-3" d="M88.8,3.4h.53v.51h-2.14v-.51h.53c.11,0,.16-.03.16-.14V.65c0-.11-.05-.14-.16-.14h-.53v-.51h2.15v.51h-.54c-.1,0-.15.03-.15.14v.97h3.26v-.97c0-.11-.05-.14-.15-.14h-.54v-.51h2.16v.51h-.54c-.1,0-.15.03-.15.14v2.62c0,.11.05.14.15.14h.53v.51h-2.14v-.51h.53c.1,0,.15-.03.15-.14v-1.14h-3.26v1.14c0,.11.05.14.15.14"/>
        <path class="cls-3" d="M93.92,3.4h.48c.12,0,.2-.05.2-.19V.67c-.02-.13-.09-.15-.22-.15h-.46v-.51h4.87v1.08h-.56v-.49c0-.06-.02-.08-.07-.08h-2.78v1.18h1.22c.07,0,.09-.03.09-.09v-.34h.52v1.29h-.52v-.34c0-.06-.01-.09-.09-.09h-1.22v1.27h2.77c.1,0,.12-.02.12-.12v-.45h.56v1.08h-4.91v-.51Z"/>
        <path class="cls-3" d="M83.98,20.84h12.98v24.26l-12.98-24.26ZM66.34,20.35h.53l4.83,8.94h-9.97l4.61-8.94h0ZM16.89,20h13.6c2.09,0,2.67.78,2.76.93.09.15.1.28.1.78v.23c0,.47-.02.59-.1.72-.09.15-.67.92-2.77.92h-13.6v-3.58ZM164.13,7.55v12.44h-19.99V7.55h-16.86v.12h-46.44v7.3l-3.97-7.42h-20.53l-5.87,10.96c-1.76-8.69-11.49-10.61-19.78-10.61H0v38.93h16.89v-11.27h13.81c3.87,0,8.06-.43,11.61-1.77l-6.98,13.05h17.39l3.21-6.24h21.36l3.21,6.24h33.46v-25.99h13.32v25.99h16.86v-13.45h19.99v13.45h16.86V7.55h-16.86,0Z"/>
        <path class="cls-3" d="M41.68,52.35h1.39c.63,0,1.33-.05,1.33-.72s-.69-.71-1.33-.71h-1.39v1.43ZM41.84,53.92h.55v.53h-2.22v-.53h.55c.11,0,.16-.03.16-.14v-2.72c0-.12-.05-.15-.16-.15h-.55v-.53h2.99c.76,0,2.08.03,2.08,1.22,0,.86-.68,1.14-1.37,1.23l1,.97c.09.08.16.1.28.1h.53v.53h-.97c-.25,0-.3-.02-.43-.15l-1.35-1.42h-1.24v.9c0,.11.06.14.16.14"/>
        <path class="cls-3" d="M50.57,52.7h2.04l-1.03-1.57-1.01,1.57ZM52.93,53.18h-2.67l-.4.62c-.06.09-.04.12.1.12h.57v.52h-2.16v-.52h.43c.21,0,.24,0,.35-.16l2.29-3.43h.5l2.29,3.46c.06.09.1.12.26.12h.49v.52h-2.23v-.52h.5c.13,0,.16-.02.1-.12l-.41-.63h0Z"/>
        <path class="cls-3" d="M57.89,53.92h.5c.13,0,.21-.05.21-.2v-2.64c-.02-.14-.09-.16-.23-.16h-.48v-.53h5.06v1.12h-.58v-.51c0-.06-.02-.08-.07-.08h-2.88v1.22h1.27c.07,0,.09-.03.09-.09v-.35h.54v1.33h-.54v-.35c0-.06-.01-.09-.09-.09h-1.27v1.32h2.88c.1,0,.12-.02.12-.12v-.47h.58v1.12h-5.1v-.53h0Z"/>
        <path class="cls-3" d="M66.43,52.04l-.14-.19c.42-.26.58-.55.64-.78-.06.09-.13.1-.21.1-.24,0-.38-.17-.38-.41s.15-.42.45-.42c.32,0,.5.19.5.47,0,.53-.38.93-.84,1.23"/>
        <path class="cls-3" d="M75.07,50.63v.95h-.6v-.53c-.33-.14-.93-.2-1.54-.2-.74,0-1.55.06-1.55.56,0,.98,3.94-.01,3.94,1.84,0,.9-.94,1.26-2.45,1.26-.91,0-1.79-.12-2.35-.33v-1h.64v.59c.33.14.92.22,1.7.22.91,0,1.67-.15,1.67-.68,0-1.15-3.94-.1-3.94-1.84,0-.87,1.04-1.13,2.34-1.13.79,0,1.58.1,2.15.3"/>
        <path class="cls-3" d="M87.8,53.71v-.64h.62v1c-.55.27-1.44.44-2.32.44-1.72,0-3.2-.66-3.2-2.08s1.52-2.1,3.14-2.1c.88,0,1.81.19,2.34.48v1.05h-.62v-.73c-.19-.11-.92-.27-1.68-.27-1.34,0-2.32.51-2.32,1.56s.98,1.55,2.32,1.55c.78,0,1.52-.17,1.72-.28"/>
        <path class="cls-3" d="M93.19,52.35h1.39c.63,0,1.33-.05,1.33-.72s-.69-.71-1.33-.71h-1.39v1.43ZM93.35,53.92h.55v.53h-2.22v-.53h.55c.11,0,.16-.03.16-.14v-2.72c0-.12-.05-.15-.16-.15h-.55v-.53h2.99c.76,0,2.08.03,2.08,1.22,0,.86-.68,1.14-1.37,1.23l1,.97c.09.08.16.1.28.1h.53v.53h-.97c-.25,0-.3-.02-.43-.15l-1.35-1.42h-1.24v.9c0,.11.06.14.15.14"/>
        <path class="cls-3" d="M99.92,50.92v-.52h2.27v.52h-.56c-.11,0-.18.04-.18.17v1.14c0,1.17.71,1.71,1.76,1.71,1.1,0,1.74-.63,1.74-1.73v-1.08c0-.17-.07-.22-.19-.22h-.53v-.52h2.02v.52h-.56c-.11,0-.17.05-.17.22v1.1c0,1.5-1,2.28-2.44,2.28s-2.46-.69-2.46-2.24v-1.17c0-.1-.06-.18-.18-.18h-.54,0Z"/>
        <path class="cls-3" d="M113.9,50.63v.95h-.61v-.53c-.32-.14-.93-.2-1.54-.2-.74,0-1.55.06-1.55.56,0,.98,3.94-.01,3.94,1.84,0,.9-.94,1.26-2.45,1.26-.92,0-1.79-.12-2.35-.33v-1h.64v.59c.33.14.92.22,1.7.22.91,0,1.67-.15,1.67-.68,0-1.15-3.94-.1-3.94-1.84,0-.87,1.04-1.13,2.34-1.13.79,0,1.58.1,2.15.3"/>
        <path class="cls-3" d="M119.07,52.7h2.04l-1.03-1.57-1.01,1.57ZM121.43,53.18h-2.67l-.4.62c-.06.09-.04.12.1.12h.57v.52h-2.16v-.52h.42c.21,0,.24,0,.35-.16l2.29-3.43h.5l2.29,3.46c.06.09.1.12.25.12h.49v.52h-2.23v-.52h.49c.13,0,.16-.02.1-.12l-.41-.63h0Z"/>
        <path class="cls-3" d="M127.91,53.92h1.37c1.13,0,2.25-.45,2.25-1.52,0-1.13-1.15-1.48-2.25-1.48h-1.37v3ZM127.1,53.79v-2.71c-.02-.12-.09-.14-.23-.14h-.49v-.53h2.85c1.7,0,3.17.51,3.17,2s-1.44,2.05-3.17,2.05h-2.84v-.53h.49c.11,0,.19-.03.21-.13"/>
        <path class="cls-3" d="M135.54,53.92h.5c.13,0,.21-.05.21-.2v-2.64c-.02-.14-.09-.16-.23-.16h-.48v-.53h5.06v1.12h-.58v-.51c0-.06-.02-.08-.07-.08h-2.88v1.22h1.27c.07,0,.09-.03.09-.09v-.35h.54v1.33h-.54v-.35c0-.06-.01-.09-.09-.09h-1.27v1.32h2.88c.1,0,.12-.02.12-.12v-.47h.58v1.12h-5.1v-.53h0Z"/>
        <path class="cls-3" d="M34.5,49.85h-.03s-.06.02-.07.05l-.27,2.07-1.11-1.11s-.05-.02-.08,0c-.02.02-.03.05-.01.08l.95,1.23-2.36.17s-.05.03-.05.06v.07s.02.05.05.06l2.36.16-.95,1.23s-.02.06.01.08c.02.02.06.02.08,0l1.11-1.11.27,2.07s.03.05.07.05h.03s.05-.03.05-.06v-5.03s-.02-.05-.05-.06"/>
        <path class="cls-3" d="M146.32,49.85h.03s.06.02.07.05l.27,2.07,1.11-1.11s.05-.02.08,0c.02.02.03.05.01.08l-.95,1.23,2.36.17s.05.03.05.06v.07s-.02.05-.05.06l-2.36.16.95,1.23s.02.06-.01.08c-.02.02-.06.02-.08,0l-1.11-1.11-.27,2.07s-.03.05-.07.05h-.03s-.05-.03-.05-.06v-5.03s.02-.05.05-.06"/>
        <path class="cls-4" d="M66.6,15.13c-5.36,0-9.71,4.67-9.71,10.42s4.36,10.42,9.71,10.42,9.71-4.67,9.71-10.42-4.36-10.42-9.71-10.42Z"/>
        <path class="cls-2" d="M66.6,15.13c-5.36,0-9.71,4.67-9.71,10.42s4.36,10.42,9.71,10.42,9.71-4.67,9.71-10.42-4.36-10.42-9.71-10.42Z"/>
        <path class="cls-4" d="M66.6,15.02c-5.42,0-9.82,4.71-9.82,10.52s4.39,10.52,9.82,10.52,9.82-4.71,9.82-10.52-4.39-10.52-9.82-10.52Z"/>
        <path class="cls-4" d="M66.6,15.13c-5.36,0-9.71,4.67-9.71,10.42s4.36,10.42,9.71,10.42,9.71-4.67,9.71-10.42-4.36-10.42-9.71-10.42ZM66.6,36.17c-5.47,0-9.92-4.77-9.92-10.63s4.45-10.63,9.92-10.63,9.92,4.77,9.92,10.63-4.45,10.63-9.92,10.63Z"/>
        <path class="cls-3" d="M66.6,15.33c-5.24,0-9.51,4.58-9.51,10.22s4.27,10.22,9.51,10.22,9.51-4.58,9.51-10.22-4.27-10.22-9.51-10.22ZM66.6,36.09c-5.44,0-9.87-4.73-9.87-10.55s4.43-10.55,9.87-10.55,9.87,4.73,9.87,10.55-4.43,10.55-9.87,10.55Z"/>
        <path class="cls-4" d="M66.6,34.67c-4.51,0-8.16-3.92-8.16-8.75s3.65-8.75,8.16-8.75,8.16,3.92,8.16,8.75-3.65,8.75-8.16,8.75Z"/>
        <path class="cls-2" d="M66.6,34.67c-4.51,0-8.16-3.92-8.16-8.75s3.65-8.75,8.16-8.75,8.16,3.92,8.16,8.75-3.65,8.75-8.16,8.75Z"/>
        <path class="cls-3" d="M59.84,29.07h.42l.33-1.16,2.02-1.41-1.5,1.73-.48,1.94.76,2.81-2.12-3.34.58-.57Z"/>
        <path class="cls-3" d="M73.33,29.07h-.42l-.33-1.16-2.01-1.41,1.5,1.73.48,1.94-.76,2.81,2.12-3.34-.58-.57Z"/>
        <path class="cls-3" d="M60.51,18.44l1.74.37,1.22.68.28,1.17h1.02l.59,1.07-.39-2.28-.68.64-.15-1.18.29-.64-.74.5-.57-.88-.73-1.55-1.87,2.11Z"/>
        <path class="cls-3" d="M60.32,23.37l1.13-1.11h.8l.96-.19.73.66s.73.22.88.32c.15.1.44.83.44.83l.44.87.63.61-.34.12-.15.44-.13.49-1.23,1.22-.39-.17-1.12.98.07-.75.8-.3.88-1.9.19.64-1.59,1.02-1.07.1-1.42-.44s1.45-1.27,1.65-1.37c.19-.1.85.93.85.93l-2.26-.24-1-.44-.99-1.37-.62.44.45-1.94.73.76.71-.17h0Z"/>
        <path class="cls-4" d="M64.9,24.68c-.15.81-.94,1.33-1.74,1.18-.81-.15-1.34-.93-1.19-1.74.16-.81.93-1.34,1.74-1.18.81.15,1.34.93,1.19,1.74Z"/>
        <path class="cls-4" d="M61.1,23.84s-.63.74.07,1.93l-1.27-.74-.98-.11,1.11-.49.33.52s.3-.98.73-1.1Z"/>
        <path class="cls-3" d="M72.69,18.44l-1.74.37-1.22.68-.28,1.17h-1.02l-.59,1.07.39-2.28.68.64.15-1.18-.29-.64.81.5.48-.79.76-1.64,1.88,2.11Z"/>
        <path class="cls-3" d="M72.88,23.37l-1.13-1.11h-.8l-.96-.19-.73.66s-.73.22-.88.32c-.15.1-.44.83-.44.83l-.44.87-.64.61.34.12.15.44.13.49,1.23,1.22.39-.17,1.12.98-.07-.75-.8-.3-.88-1.9-.19.64,1.59,1.02,1.07.1,1.42-.44s-1.45-1.27-1.65-1.37c-.19-.1-.85.93-.85.93l2.26-.24,1-.44.99-1.37.62.44-.45-1.94-.87.82-.57-.23h0Z"/>
        <path class="cls-4" d="M72.09,23.84s.63.74-.07,1.93l1.27-.74.98-.11-1.11-.49-.33.52s-.3-.98-.73-1.1"/>
        <path class="cls-3" d="M69.83,27.62l-.99-.34-.31.78-.72-.39-.71.39h-1.04l-.71-.39-.72.39-.31-.78-.99.34-.94,1.55.94-1.09.88-.22.19.44,1-.22.42.61.76.2.76-.2.43-.61,1,.22.19-.44.88.22.94,1.09-.94-1.55Z"/>
        <path class="cls-3" d="M62.62,30.31l2.35-.61,1.63.61v-.61l-.99-.33-1-.21-1.99,1.15Z"/>
        <path class="cls-3" d="M62.22,29.58l-.52.68.26.49.65-.43-.4-.73Z"/>
        <path class="cls-3" d="M70.58,30.31l-2.35-.61-1.64.61v-.61l.99-.33,1-.21,1.99,1.15Z"/>
        <path class="cls-3" d="M70.98,29.58l.52.68-.26.49-.66-.43.4-.73Z"/>
        <path class="cls-4" d="M74.24,18.45c-.8-.83-1.7-1.57-2.69-2.19-.25-.16-.57-.1-.69.12-.15.42-.3.83-.46,1.24-.13.22-.08.49.11.6.75.46,1.44,1.01,2.07,1.62.16.15.43.15.61-.02.36-.24.72-.46,1.08-.69.18-.16.17-.48-.03-.69"/>
        <path class="cls-3" d="M71.26,16.27s-.07,0-.1.01c-.09.02-.16.07-.2.15-.14.4-.3.82-.46,1.23-.1.18-.07.39.07.48.75.47,1.45,1.01,2.09,1.63.12.12.33.11.47-.02.37-.24.73-.47,1.1-.7.04-.04.08-.12.08-.2,0-.12-.05-.24-.14-.33-.8-.83-1.69-1.56-2.67-2.17-.08-.05-.16-.07-.25-.07M72.88,20.06c-.13,0-.26-.05-.36-.14-.62-.61-1.32-1.15-2.05-1.61-.24-.15-.3-.47-.15-.74.15-.39.31-.81.46-1.22.08-.14.19-.23.34-.26.17-.04.35,0,.5.09.98.62,1.89,1.37,2.7,2.2.13.14.2.31.19.48,0,.14-.06.27-.16.36-.38.23-.74.46-1.09.69-.1.1-.24.15-.38.15"/>
        <path class="cls-4" d="M71.45,17.9c.08-.12.04-.29-.09-.37-.13-.08-.3-.04-.38.08s-.03.29.09.37c.12.08.29.04.37-.08Z"/>
        <path class="cls-3" d="M71.21,17.53s-.03,0-.05,0c-.05.01-.1.05-.13.1-.06.1-.03.24.08.3.1.06.24.03.3-.06.03-.05.04-.1.03-.15-.01-.06-.05-.11-.1-.15-.04-.02-.08-.03-.12-.03M71.23,18.07c-.06,0-.12-.02-.17-.05-.15-.09-.2-.28-.11-.44.04-.07.11-.12.19-.14.09-.02.18,0,.26.04.08.05.13.12.15.21.02.08,0,.17-.05.24-.06.09-.16.14-.27.14Z"/>
        <path class="cls-4" d="M73.07,19.27c.1-.1.1-.27,0-.38-.11-.11-.28-.12-.38-.01-.1.1-.09.27,0,.37.1.1.27.11.37.02Z"/>
        <path class="cls-3" d="M72.86,18.86c-.05,0-.1.02-.14.06-.08.08-.08.22,0,.3.09.08.22.09.3.02.04-.03.06-.08.06-.14,0-.06-.02-.12-.07-.17-.04-.05-.1-.07-.16-.07M72.89,19.39c-.09,0-.17-.03-.24-.1-.12-.12-.13-.32-.01-.44.05-.06.13-.09.21-.09.09,0,.17.04.24.1.07.07.1.15.1.24,0,.08-.03.15-.09.21-.06.05-.13.08-.21.08"/>
        <path class="cls-4" d="M58.95,18.45c.8-.83,1.7-1.57,2.69-2.19.25-.16.57-.1.69.12.15.42.3.83.47,1.24.13.22.08.49-.11.6-.75.46-1.44,1.01-2.07,1.62-.16.15-.43.15-.61-.02-.36-.24-.72-.46-1.08-.69-.18-.16-.17-.48.03-.69"/>
        <path class="cls-3" d="M59.03,18.52c-.09.09-.14.22-.14.33,0,.08.03.16.09.21.35.21.71.44,1.07.68.15.14.36.15.48.03.64-.62,1.34-1.17,2.09-1.63.14-.09.18-.3.08-.46-.17-.42-.32-.84-.47-1.26-.03-.06-.1-.11-.19-.13-.11-.03-.24,0-.34.06-.97.61-1.87,1.35-2.67,2.17M60.32,20.06c-.14,0-.28-.05-.39-.15-.34-.22-.71-.46-1.07-.68-.11-.1-.17-.23-.18-.37,0-.17.06-.35.19-.48.81-.84,1.72-1.58,2.7-2.2.16-.1.34-.13.5-.09.14.03.26.12.33.25.15.43.31.85.47,1.25.15.25.09.58-.15.73-.74.46-1.43,1-2.05,1.61-.1.1-.22.14-.36.14"/>
        <path class="cls-4" d="M61.74,17.9c-.08-.12-.04-.29.09-.37.13-.08.3-.04.38.08.07.13.03.29-.09.37-.12.08-.29.04-.37-.08Z"/>
        <path class="cls-3" d="M61.98,17.53s-.09.01-.12.03c-.05.03-.09.08-.1.15-.01.05,0,.11.03.16.07.1.2.13.3.06.1-.06.14-.19.08-.3-.03-.05-.07-.08-.13-.1-.02,0-.03,0-.05,0M61.97,18.07c-.1,0-.21-.05-.27-.14-.05-.07-.06-.15-.04-.24.02-.08.07-.16.15-.21.08-.05.17-.06.26-.04.08.02.15.07.19.14.09.15.04.34-.11.44-.05.03-.11.05-.17.05"/>
        <path class="cls-4" d="M60.13,19.27c-.1-.1-.1-.27,0-.38.11-.11.28-.12.38-.01.1.1.09.27,0,.37-.1.1-.27.11-.37.02Z"/>
        <path class="cls-3" d="M60.34,18.86c-.06,0-.12.03-.16.07-.05.05-.07.11-.07.17,0,.05.02.1.06.14.09.08.22.07.3-.02.09-.08.09-.22,0-.3-.03-.04-.09-.06-.14-.06h0ZM60.31,19.39c-.07,0-.15-.03-.21-.08-.06-.05-.09-.13-.1-.21,0-.09.03-.18.1-.24.06-.07.15-.1.24-.1s.16.03.21.09c.12.12.11.32-.01.44-.07.07-.15.1-.24.1"/>
        <path class="cls-3" d="M61.81,23.52s1.74-.44,3.75,1.62l-.27-.94s-1.52-3.07-3.48-.68"/>
        <path class="cls-4" d="M68.27,24.68c.15.81.93,1.33,1.74,1.18.81-.15,1.34-.93,1.19-1.74-.16-.81-.93-1.33-1.74-1.18-.81.15-1.34.93-1.19,1.74Z"/>
        <path class="cls-3" d="M71.36,23.52s-1.74-.44-3.75,1.62l.27-.94s1.52-3.07,3.48-.68"/>
        <path class="cls-3" d="M59.91,25.02l-1.36.52-.12,1.22,1.64-1.1-.15-.63Z"/>
        <path class="cls-3" d="M73.26,25.02l1.36.52.12,1.22-1.64-1.1.15-.63Z"/>
        <path class="cls-3" d="M61.94,24.85s.76.9,2.33.78l.64.08-1.59,1.02-1.34-.35-.03-1.53h0Z"/>
        <path class="cls-3" d="M71.23,24.85s-.76.9-2.33.78l-.64.08,1.59,1.02,1.34-.35.03-1.53h0Z"/>
        <path class="cls-3" d="M64.13,31.19l1.22.57h1.53l-.56.24-1.36.51-.35,1.83-1.18-.36-.64-1.34.67.14.81-.57-.15-1.01Z"/>
        <path class="cls-3" d="M69.07,31.19l-1.22.57h-1.53l.56.24,1.36.51.35,1.83,1.29-.49.52-1.21-.67.14-.81-.57.15-1.01Z"/>
        <path class="cls-3" d="M60.32,21.87l.26-.51.75-.11.53-.25,1,.16.34.89-.34.24-.25-.92-.67-.17-.65.2-.65.05-.32.41Z"/>
        <path class="cls-3" d="M72.85,21.93l-.27-.51-.74-.11-.53-.25-1,.16-.34.89.34.24.25-.93.67-.17.65.2.65.05.32.41Z"/>
        <path class="cls-4" d="M61.38,23.65l.71-.44s1.47-.22,2.74.99l-.31-.83-1.2-.46-.46-.45-.71.14h-.41l-.37,1.04h0Z"/>
        <path class="cls-4" d="M71.79,23.65l-.71-.44s-1.47-.22-2.74.99l.31-.83,1.2-.46.46-.45.71.14h.41l.37,1.04h0Z"/>
        <path class="cls-4" d="M61.76,24.24s-.09.68.12.96c0,0,.99.83,2.39.71,0,0,.46-.29.56-.44l.07.36-1.07,1.52-.52-.12.63-.83-.53.21-1.27-.19-.51-.43-.27-.65s-.12-.67.38-1.12"/>
        <path class="cls-4" d="M71.41,24.24s.09.68-.12.96c0,0-.99.83-2.39.71,0,0-.46-.29-.56-.44l-.07.36,1.07,1.52.52-.12-.63-.83.53.21,1.27-.19.51-.43.27-.65s.12-.67-.38-1.12"/>
        <path class="cls-4" d="M73.53,33.11c-.73.76-1.55,1.42-2.43,1.99-.23.15-.51.09-.62-.11-.14-.38-.28-.75-.42-1.13-.12-.2-.07-.44.1-.54.68-.42,1.31-.91,1.88-1.47.14-.14.39-.14.55.02.32.21.65.42.98.62.17.15.15.43-.03.62"/>
        <path class="cls-3" d="M72.29,31.84c-.07,0-.14.03-.19.07-.57.56-1.21,1.06-1.89,1.48-.13.08-.16.27-.07.42.15.39.29.77.43,1.14.03.05.1.1.18.12.1.03.21,0,.31-.06.88-.56,1.69-1.22,2.42-1.97.08-.08.13-.2.12-.3,0-.08-.03-.15-.09-.19-.32-.19-.65-.4-.97-.61-.07-.07-.16-.1-.24-.1M70.83,35.27s-.09,0-.13-.02c-.13-.03-.24-.11-.3-.22-.14-.39-.28-.76-.43-1.14-.14-.23-.08-.52.14-.66.67-.42,1.3-.91,1.86-1.45.18-.18.48-.17.68.01.31.2.64.41.96.61.1.09.15.2.16.34,0,.15-.06.32-.17.44-.73.76-1.56,1.43-2.45,2-.1.06-.21.1-.33.1Z"/>
        <path class="cls-4" d="M71,33.61c.07.11.04.26-.08.34-.12.08-.28.04-.34-.08-.07-.12-.03-.26.09-.33.11-.07.26-.04.34.07Z"/>
        <path class="cls-3" d="M70.8,33.55s-.07.01-.11.03c-.09.06-.12.18-.07.27.02.04.07.07.12.09.05.02.11,0,.16-.03.05-.03.08-.08.09-.13.01-.05,0-.1-.03-.14-.04-.06-.1-.09-.17-.09M70.79,34.03s-.05,0-.07,0c-.07-.02-.14-.07-.17-.13-.08-.14-.03-.31.1-.39.14-.08.31-.05.4.08.04.06.06.14.04.21-.02.08-.07.15-.14.19-.05.03-.1.05-.16.05Z"/>
        <path class="cls-4" d="M72.47,32.36c.1.08.1.24,0,.34-.1.1-.26.1-.34.01-.09-.09-.09-.24,0-.34.09-.09.24-.1.34-.02"/>
        <path class="cls-3" d="M72.31,32.35c-.05,0-.11.02-.15.06-.08.08-.08.2,0,.27.03.03.08.05.13.05.05,0,.11-.02.15-.07.04-.04.06-.1.06-.15,0-.05-.02-.09-.05-.12-.03-.03-.08-.05-.13-.05M72.28,32.83c-.07,0-.14-.03-.19-.08-.11-.11-.1-.29,0-.4.11-.11.29-.12.4-.02.05.05.09.12.09.19,0,.08-.03.16-.09.22s-.14.09-.21.09Z"/>
        <path class="cls-4" d="M59.67,33.11c.73.76,1.55,1.42,2.43,1.99.23.15.51.09.62-.11.14-.38.28-.75.42-1.13.12-.2.07-.44-.1-.54-.68-.42-1.31-.91-1.88-1.47-.14-.14-.39-.14-.55.02-.32.21-.65.42-.98.62-.17.15-.16.43.03.62"/>
        <path class="cls-3" d="M59.73,33.05c.72.75,1.53,1.41,2.42,1.97.1.06.21.08.31.06.08-.02.15-.07.18-.13.13-.37.27-.74.41-1.12.1-.17.07-.35-.07-.43-.68-.42-1.32-.92-1.89-1.48-.11-.1-.3-.1-.43.02-.33.22-.67.43-1,.63-.04.04-.07.1-.07.18,0,.1.04.22.12.3M62.38,35.27c-.11,0-.22-.03-.33-.1-.9-.57-1.72-1.24-2.45-2-.12-.12-.18-.28-.17-.44,0-.13.06-.24.15-.32.34-.21.67-.42.99-.63.19-.17.48-.18.67,0,.57.55,1.19,1.04,1.86,1.45.22.14.28.43.13.67-.14.35-.28.73-.41,1.11-.07.13-.17.2-.31.24-.04.01-.09.02-.13.02"/>
        <path class="cls-4" d="M62.2,33.61c-.07.11-.04.26.08.34.12.08.28.04.34-.08.07-.12.03-.26-.09-.33-.11-.07-.26-.04-.34.07Z"/>
        <path class="cls-3" d="M62.4,33.55c-.07,0-.13.03-.17.09-.03.04-.04.09-.03.14.01.05.05.1.09.13.05.03.1.04.16.03.05-.01.09-.04.12-.09.05-.09.02-.21-.07-.27-.03-.02-.07-.03-.11-.03M62.41,34.03c-.05,0-.11-.02-.16-.05-.07-.04-.12-.11-.14-.19-.02-.07,0-.15.04-.21.09-.13.26-.17.4-.08.14.08.18.25.1.39-.04.07-.1.11-.17.13-.02,0-.05,0-.07,0Z"/>
        <path class="cls-4" d="M60.74,32.36c-.1.08-.1.24,0,.34.1.1.26.1.34.01.09-.09.09-.24,0-.34-.09-.09-.24-.1-.34-.02"/>
        <path class="cls-3" d="M60.9,32.35s-.09.02-.13.05c-.03.03-.05.08-.06.12,0,.05.02.11.06.15.04.04.09.07.15.07.05,0,.09-.02.13-.05.07-.08.07-.2,0-.27-.04-.04-.09-.06-.15-.06M60.92,32.83c-.08,0-.16-.03-.22-.09-.06-.06-.09-.14-.09-.22,0-.07.03-.14.09-.19.11-.1.29-.1.4.02.11.11.12.29,0,.4-.05.05-.12.08-.19.08h0Z"/>
        <path class="cls-3" d="M67.32,24.55l-.36-.68v-1.27l.64-.69-.64.39-.34.07-.34-.07-.64-.39.64.69v1.27l-.36.68-.64-.35.58,1.26.29-.12.47.78.46-.78.29.12.58-1.26-.64.35Z"/>
      </g>
    </g>
  </g>
</svg>