<?xml version="1.0" encoding="UTF-8"?>
<svg id="Layer_2" data-name="Layer 2" xmlns="http://www.w3.org/2000/svg" xmlns:xlink="http://www.w3.org/1999/xlink" viewBox="0 0 467.09 142.54">
  <defs>
    <style>
      .cls-1, .cls-2 {
        fill: none;
      }

      .cls-3 {
        fill: #231f20;
      }

      .cls-2 {
        stroke: #231f20;
        stroke-miterlimit: 10;
      }

      .cls-4 {
        fill: #fff;
      }

      .cls-5 {
        clip-path: url(#clippath);
      }
    </style>
    <clipPath id="clippath">
      <rect class="cls-1" width="467.09" height="142.54"/>
    </clipPath>
  </defs>
  <g id="Layer_1-2" data-name="Layer 1">
    <g class="cls-5">
      <g>
        <path class="cls-4" d="M218.59,8.44c0,.29.14.36.4.36h1.37v1.32h-5.53v-1.32h1.37c.26,0,.39-.07.39-.36V1.34h-3.5c-.41,0-.45.06-.45.39v1.4h-1.55V0h12.95v3.14h-1.55v-1.4c0-.33-.04-.39-.43-.39h-3.48v7.09h0Z"/>
        <path class="cls-4" d="M229.18,8.8h1.37v1.32h-5.52v-1.32h1.36c.28,0,.41-.07.41-.35V1.68c0-.29-.13-.36-.41-.36h-1.37V0h5.56v1.32h-1.4c-.25,0-.39.07-.39.36v2.52h8.42V1.68c0-.29-.13-.36-.39-.36h-1.39V0h5.58v1.32h-1.4c-.26,0-.39.07-.39.36v6.78c0,.28.13.35.39.35h1.37v1.32h-5.52v-1.32h1.36c.26,0,.39-.07.39-.35v-2.95h-8.42v2.95c0,.28.14.35.39.35"/>
        <path class="cls-4" d="M242.39,8.8h1.24c.32,0,.52-.13.52-.49V1.73c-.04-.33-.22-.4-.58-.4h-1.2V0h12.57v2.79h-1.44v-1.27c0-.16-.06-.2-.17-.2h-7.17v3.05h3.16c.19,0,.22-.07.22-.23v-.87h1.34v3.34h-1.34v-.87c0-.16-.03-.23-.23-.23h-3.15v3.29h7.15c.26,0,.3-.06.3-.3v-1.17h1.45v2.79h-12.67v-1.32Z"/>
        <path class="cls-4" d="M216.72,54.02h33.51v62.89l-33.51-62.89ZM171.21,52.75h1.36l12.47,23.16h-25.74l11.9-23.16h0ZM43.6,51.83h35.1c5.4,0,6.89,2.02,7.13,2.42.22.38.27.73.27,2.02v.59c0,1.22-.04,1.52-.25,1.86-.24.4-1.73,2.39-7.15,2.39h-35.1v-9.28ZM423.58,19.58v32.25h-51.59V19.58h-43.52v.3h-119.85v18.92l-10.24-19.22h-52.97l-15.14,28.41c-4.55-22.51-29.66-27.51-51.05-27.51H0v100.91h43.59v-29.22h35.63c10,0,20.81-1.11,29.95-4.6l-18.02,33.82h44.88l8.29-16.17h55.13l8.29,16.17h86.34V54.02h34.38v67.37h43.52v-34.86h51.59v34.86h43.52V19.58h-43.52.01Z"/>
        <path class="cls-4" d="M107.57,135.69h3.58c1.62,0,3.42-.12,3.42-1.86s-1.77-1.84-3.42-1.84h-3.58v3.7ZM107.98,139.75h1.42v1.37h-5.73v-1.37h1.41c.28,0,.42-.07.42-.36v-7.04c0-.3-.14-.38-.42-.38h-1.43v-1.37h7.71c1.96,0,5.37.09,5.37,3.15,0,2.22-1.76,2.95-3.54,3.19l2.59,2.52c.24.22.41.27.73.27h1.37v1.37h-2.51c-.65,0-.78-.05-1.11-.39l-3.49-3.67h-3.21v2.34c0,.29.15.36.41.36"/>
        <path class="cls-4" d="M130.52,136.59h5.27l-2.66-4.08-2.61,4.08ZM136.6,137.83h-6.89l-1.02,1.61c-.15.23-.1.32.26.32h1.48v1.36h-5.58v-1.36h1.1c.54,0,.63,0,.9-.42l5.91-8.88h1.29l5.91,8.98c.16.24.27.32.66.32h1.26v1.36h-5.76v-1.36h1.28c.33,0,.42-.06.27-.3l-1.06-1.62h-.01Z"/>
        <path class="cls-4" d="M149.39,139.75h1.29c.33,0,.54-.13.54-.51v-3.08l-.02-3.75c-.03-.35-.21-.42-.58-.42h-1.24v-1.38h13.05v2.9h-1.5v-1.32c0-.16-.06-.21-.18-.21h-7.44v3.17h3.29c.19,0,.22-.08.22-.24v-.9h1.4v3.46h-1.4v-.9c0-.16-.03-.24-.24-.24h-3.27v3.42h7.43c.27,0,.31-.06.31-.31v-1.21h1.5v2.89h-13.15v-1.37h0Z"/>
        <path class="cls-4" d="M171.43,134.88l-.36-.49c1.08-.68,1.5-1.43,1.64-2.02-.15.23-.33.27-.55.27-.63,0-.99-.45-.99-1.07s.4-1.1,1.17-1.1c.82,0,1.28.5,1.28,1.22,0,1.38-.97,2.4-2.17,3.19"/>
        <path class="cls-4" d="M193.73,131.23v2.46h-1.56v-1.37c-.84-.35-2.4-.51-3.97-.51-1.91,0-4.01.16-4.01,1.44,0,2.54,10.17-.03,10.17,4.76,0,2.32-2.43,3.27-6.33,3.27-2.36,0-4.62-.3-6.07-.86v-2.59h1.65v1.53c.84.35,2.37.56,4.38.56,2.34,0,4.3-.39,4.3-1.76,0-2.97-10.17-.27-10.17-4.78,0-2.25,2.68-2.93,6.04-2.93,2.04,0,4.09.27,5.56.78"/>
        <path class="cls-4" d="M226.6,139.2v-1.66h1.59v2.6c-1.41.7-3.72,1.15-6,1.15-4.45,0-8.25-1.71-8.25-5.39s3.92-5.45,8.11-5.45c2.27,0,4.67.49,6.05,1.24v2.72h-1.59v-1.88c-.49-.28-2.37-.7-4.33-.7-3.46,0-5.98,1.32-5.98,4.05s2.53,4.03,5.98,4.03c2.01,0,3.92-.43,4.43-.72"/>
        <path class="cls-4" d="M240.5,135.69h3.58c1.62,0,3.42-.12,3.42-1.86s-1.77-1.84-3.42-1.84h-3.58v3.7ZM240.9,139.75h1.42v1.37h-5.73v-1.37h1.41c.29,0,.42-.07.42-.36v-7.04c0-.3-.13-.38-.42-.38h-1.42v-1.37h7.71c1.96,0,5.37.09,5.37,3.15,0,2.22-1.76,2.95-3.54,3.19l2.59,2.52c.24.22.41.27.73.27h1.36v1.37h-2.51c-.65,0-.78-.05-1.11-.39l-3.49-3.67h-3.21v2.34c0,.29.15.36.4.36"/>
        <path class="cls-4" d="M257.86,131.97v-1.36h5.86v1.36h-1.44c-.29,0-.45.1-.45.45v2.95c0,3.04,1.83,4.44,4.54,4.44,2.85,0,4.5-1.63,4.5-4.49v-2.8c0-.43-.17-.56-.5-.56h-1.36v-1.36h5.22v1.36h-1.44c-.29,0-.45.12-.45.56v2.85c0,3.88-2.58,5.91-6.3,5.91s-6.34-1.79-6.34-5.8v-3.04c0-.27-.15-.47-.47-.47h-1.38.01Z"/>
        <path class="cls-4" d="M293.93,131.23v2.46h-1.56v-1.37c-.84-.35-2.4-.51-3.97-.51-1.91,0-4.01.16-4.01,1.44,0,2.54,10.17-.03,10.17,4.76,0,2.32-2.43,3.27-6.33,3.27-2.36,0-4.62-.3-6.07-.86v-2.59h1.65v1.53c.84.35,2.37.56,4.38.56,2.34,0,4.3-.39,4.3-1.76,0-2.97-10.17-.27-10.17-4.78,0-2.25,2.68-2.93,6.04-2.93,2.04,0,4.09.27,5.56.78"/>
        <path class="cls-4" d="M307.29,136.59h5.27l-2.66-4.08-2.61,4.08ZM313.37,137.83h-6.89l-1.02,1.61c-.15.23-.11.32.26.32h1.48v1.36h-5.58v-1.36h1.09c.54,0,.63,0,.9-.42l5.91-8.88h1.29l5.91,8.98c.16.24.27.32.66.32h1.26v1.36h-5.76v-1.36h1.27c.33,0,.42-.06.27-.3l-1.06-1.62h.01Z"/>
        <path class="cls-4" d="M330.1,139.75h3.54c2.91,0,5.8-1.17,5.8-3.94,0-2.92-2.96-3.83-5.8-3.83h-3.54v7.77ZM328,139.41v-7.03c-.06-.3-.24-.37-.59-.37h-1.26v-1.38h7.35c4.38,0,8.19,1.31,8.19,5.19s-3.71,5.31-8.19,5.31h-7.32v-1.37h1.27c.29,0,.48-.09.54-.35"/>
        <path class="cls-4" d="M349.79,139.75h1.29c.33,0,.54-.13.54-.51v-3.08l-.02-3.75c-.03-.35-.21-.42-.58-.42h-1.24v-1.38h13.05v2.9h-1.5v-1.32c0-.16-.06-.21-.18-.21h-7.44v3.17h3.29c.19,0,.22-.08.22-.24v-.9h1.4v3.46h-1.4v-.9c0-.16-.03-.24-.24-.24h-3.27v3.42h7.43c.27,0,.31-.06.31-.31v-1.21h1.5v2.89h-13.15v-1.37h-.01Z"/>
        <path class="cls-4" d="M89.04,129.2h-.08c-.08-.02-.16.04-.17.12l-.69,5.37-2.87-2.87c-.05-.05-.14-.06-.2,0s-.08.14-.03.21l2.46,3.18-6.08.43c-.08,0-.14.07-.14.15v.18c0,.08.06.14.14.15l6.08.42-2.46,3.18c-.05.06-.04.16.03.21.06.05.15.04.2,0l2.87-2.87.69,5.37c0,.08.08.14.17.13h.08c.08-.02.13-.08.13-.16v-13.04c0-.08-.06-.14-.13-.15"/>
        <path class="cls-4" d="M377.6,129.2h.08c.08-.02.16.04.17.12l.69,5.37,2.87-2.87c.05-.05.14-.06.2,0s.08.14.03.21l-2.46,3.18,6.08.43c.08,0,.14.07.14.15v.18c0,.08-.06.14-.14.15l-6.08.42,2.46,3.18c.05.06.04.16-.03.21-.06.05-.15.04-.2,0l-2.87-2.87-.69,5.37c0,.08-.08.14-.17.13h-.08c-.08-.02-.13-.08-.13-.16v-13.04c0-.08.06-.14.13-.15"/>
        <path class="cls-4" d="M171.88,39.21c-13.82,0-25.06,12.11-25.06,27s11.24,27,25.06,27,25.06-12.11,25.06-27-11.24-27-25.06-27Z"/>
        <path class="cls-2" d="M171.88,39.21c-13.82,0-25.06,12.11-25.06,27s11.24,27,25.06,27,25.06-12.11,25.06-27-11.24-27-25.06-27Z"/>
        <path class="cls-4" d="M171.88,38.93c-13.99,0-25.33,12.21-25.33,27.27s11.34,27.27,25.33,27.27,25.33-12.21,25.33-27.27-11.34-27.27-25.33-27.27Z"/>
        <path class="cls-4" d="M171.88,39.21c-13.82,0-25.06,12.11-25.06,27s11.24,27,25.06,27,25.06-12.11,25.06-27-11.24-27-25.06-27ZM171.88,93.74c-14.12,0-25.6-12.35-25.6-27.54s11.48-27.54,25.6-27.54,25.6,12.35,25.6,27.54-11.48,27.54-25.6,27.54Z"/>
        <path class="cls-3" d="M171.88,39.72c-13.53,0-24.54,11.88-24.54,26.48s11.01,26.48,24.54,26.48,24.54-11.88,24.54-26.48-11.01-26.48-24.54-26.48ZM171.88,93.55c-14.04,0-25.46-12.27-25.46-27.35s11.42-27.35,25.46-27.35,25.46,12.27,25.46,27.35-11.42,27.35-25.46,27.35Z"/>
        <path class="cls-4" d="M171.88,89.87c-11.63,0-21.06-10.15-21.06-22.67s9.43-22.67,21.06-22.67,21.06,10.15,21.06,22.67-9.43,22.67-21.06,22.67Z"/>
        <path class="cls-2" d="M171.88,89.87c-11.63,0-21.06-10.15-21.06-22.67s9.43-22.67,21.06-22.67,21.06,10.15,21.06,22.67-9.43,22.67-21.06,22.67Z"/>
        <path class="cls-3" d="M154.42,75.34h1.08l.85-3,5.21-3.66-3.88,4.48-1.24,5.02,1.96,7.29-5.47-8.66,1.49-1.47Z"/>
        <path class="cls-3" d="M189.25,75.34h-1.08l-.86-3-5.2-3.66,3.88,4.48,1.24,5.02-1.96,7.29,5.47-8.66-1.49-1.47Z"/>
        <path class="cls-3" d="M156.15,47.8l4.49.95,3.14,1.76.71,3.02h2.64l1.51,2.77-1.01-5.91-1.76,1.66-.38-3.05.76-1.67-1.92,1.29-1.47-2.27-1.88-4.01-4.83,5.46Z"/>
        <path class="cls-3" d="M155.67,60.57l2.91-2.89h2.06l2.47-.5,1.89,1.7s1.89.57,2.26.82c.38.25,1.13,2.14,1.13,2.14l1.13,2.26,1.63,1.58-.88.3-.38,1.13-.34,1.26-3.18,3.17-1.01-.45-2.89,2.55.19-1.95,2.07-.78,2.26-4.92.5,1.66-4.1,2.64-2.77.25-3.67-1.13s3.75-3.29,4.25-3.54c.5-.25,2.19,2.41,2.19,2.41l-5.84-.63-2.59-1.13-2.56-3.54-1.6,1.13,1.15-5.04,1.88,1.97,1.83-.44v-.03Z"/>
        <path class="cls-4" d="M167.48,63.96c-.4,2.09-2.42,3.46-4.5,3.06-2.09-.4-3.46-2.42-3.06-4.5.4-2.09,2.41-3.46,4.5-3.06,2.09.4,3.46,2.42,3.06,4.5Z"/>
        <path class="cls-4" d="M157.69,61.79s-1.62,1.93.18,5l-3.27-1.93-2.52-.28,2.87-1.28.85,1.34s.77-2.53,1.89-2.85Z"/>
        <path class="cls-3" d="M187.6,47.8l-4.49.95-3.15,1.76-.71,3.02h-2.64l-1.51,2.77,1.01-5.91,1.76,1.66.38-3.05-.76-1.67,2.09,1.29,1.23-2.04,1.95-4.24,4.84,5.46Z"/>
        <path class="cls-3" d="M188.08,60.57l-2.91-2.89h-2.06l-2.47-.5-1.89,1.7s-1.89.57-2.26.82c-.38.25-1.13,2.14-1.13,2.14l-1.13,2.26-1.64,1.58.88.3.38,1.13.34,1.26,3.18,3.17,1.01-.45,2.89,2.55-.19-1.95-2.07-.78-2.26-4.92-.5,1.66,4.1,2.64,2.77.25,3.67-1.13s-3.75-3.29-4.25-3.54c-.5-.25-2.19,2.41-2.19,2.41l5.84-.63,2.59-1.13,2.56-3.54,1.6,1.13-1.15-5.04-2.24,2.12-1.47-.59v-.03Z"/>
        <path class="cls-4" d="M186.05,61.79s1.62,1.93-.18,5l3.27-1.93,2.52-.28-2.86-1.28-.85,1.34s-.77-2.53-1.89-2.85"/>
        <path class="cls-3" d="M180.22,71.59l-2.56-.88-.79,2.01-1.86-1.01-1.83,1.01h-2.69l-1.83-1.01-1.86,1.01-.79-2.01-2.56.88-2.43,4.02,2.43-2.82,2.26-.57.48,1.13,2.58-.56,1.09,1.57,1.97.52,1.97-.52,1.1-1.57,2.57.56.49-1.13,2.26.57,2.43,2.82-2.43-4.02Z"/>
        <path class="cls-3" d="M161.59,78.57l6.07-1.58,4.21,1.59v-1.59l-2.55-.85-2.59-.55-5.14,2.98Z"/>
        <path class="cls-3" d="M160.56,76.67l-1.33,1.75.67,1.26,1.69-1.11-1.03-1.9Z"/>
        <path class="cls-3" d="M182.15,78.57l-6.06-1.58-4.22,1.59v-1.59l2.55-.85,2.59-.55,5.14,2.98Z"/>
        <path class="cls-3" d="M183.18,76.67l1.33,1.75-.66,1.26-1.7-1.11,1.03-1.9Z"/>
        <path class="cls-4" d="M191.6,47.82c-2.07-2.16-4.4-4.07-6.93-5.67-.65-.42-1.46-.26-1.78.31-.38,1.08-.78,2.15-1.2,3.22-.33.57-.2,1.26.29,1.56,1.93,1.2,3.72,2.61,5.34,4.2.41.4,1.11.39,1.57-.04.92-.61,1.85-1.2,2.79-1.78.47-.42.44-1.24-.09-1.79"/>
        <path class="cls-3" d="M183.89,42.17c-.08,0-.17.01-.25.03-.23.06-.41.19-.52.38-.36,1.03-.77,2.12-1.18,3.18-.27.47-.18,1.01.18,1.24,1.94,1.21,3.75,2.63,5.39,4.23.31.3.85.28,1.21-.05.95-.63,1.89-1.23,2.83-1.81.11-.11.2-.3.21-.53.01-.3-.12-.61-.35-.86-2.06-2.14-4.37-4.04-6.88-5.63-.2-.13-.42-.19-.64-.19M188.08,51.99c-.34,0-.68-.12-.93-.37-1.61-1.57-3.4-2.97-5.3-4.16-.62-.39-.78-1.23-.38-1.92.4-1.02.8-2.1,1.18-3.17.2-.36.5-.59.87-.68.43-.11.9-.02,1.3.23,2.54,1.62,4.89,3.54,6.98,5.71.33.35.51.8.5,1.24-.01.37-.16.7-.42.93-.97.6-1.91,1.2-2.82,1.8-.27.25-.62.38-.97.38"/>
        <path class="cls-4" d="M184.4,46.4c.21-.31.11-.75-.23-.97-.34-.21-.78-.11-.97.22-.19.33-.08.75.24.95.32.2.75.11.96-.2Z"/>
        <path class="cls-3" d="M183.78,45.45s-.09,0-.14.02c-.14.03-.26.12-.33.25-.15.27-.07.61.2.77.26.16.61.09.78-.16.08-.12.11-.26.08-.4-.03-.16-.13-.29-.27-.38-.1-.06-.21-.09-.31-.09M183.82,46.84c-.15,0-.31-.04-.44-.13-.39-.24-.51-.73-.29-1.13.11-.19.28-.32.5-.37s.46-.02.66.11c.2.12.34.32.38.54.05.21,0,.43-.12.61-.16.24-.42.37-.69.37Z"/>
        <path class="cls-4" d="M188.56,49.96c.27-.25.27-.69,0-.98-.28-.29-.72-.3-.98-.03-.26.27-.24.7.02.96.26.27.69.29.96.05Z"/>
        <path class="cls-3" d="M188.03,48.89c-.14,0-.27.05-.36.15-.21.22-.2.56.02.78.22.22.57.24.78.04.1-.09.15-.21.16-.35,0-.16-.06-.32-.17-.44-.11-.12-.27-.18-.42-.18M188.11,50.26c-.22,0-.44-.09-.61-.26-.32-.32-.33-.83-.03-1.15.14-.15.34-.23.55-.24.23,0,.45.1.61.27.17.17.26.4.25.63,0,.21-.09.4-.24.54-.15.14-.34.21-.54.21"/>
        <path class="cls-4" d="M152.14,47.82c2.07-2.16,4.4-4.07,6.93-5.67.65-.42,1.46-.26,1.78.31.38,1.08.78,2.15,1.2,3.22.33.57.2,1.26-.29,1.56-1.93,1.2-3.72,2.61-5.35,4.2-.41.4-1.11.39-1.57-.04-.92-.61-1.85-1.2-2.79-1.78-.47-.42-.44-1.24.09-1.79"/>
        <path class="cls-3" d="M152.33,48c-.23.24-.36.56-.35.86,0,.22.09.42.24.55.9.55,1.84,1.15,2.76,1.76.39.36.93.38,1.24.07,1.64-1.6,3.45-3.02,5.39-4.23.37-.23.46-.77.2-1.2-.43-1.09-.83-2.17-1.22-3.26-.09-.15-.27-.29-.5-.34-.29-.07-.61-.01-.89.16-2.51,1.59-4.82,3.49-6.88,5.63M155.67,51.99c-.36,0-.72-.13-1.01-.4-.88-.58-1.82-1.18-2.75-1.75-.29-.26-.44-.59-.46-.95-.02-.44.16-.9.5-1.24,2.09-2.17,4.43-4.1,6.97-5.71.4-.25.87-.34,1.3-.23.37.09.67.32.85.64.4,1.12.81,2.2,1.22,3.25.39.65.22,1.5-.4,1.88-1.91,1.19-3.69,2.59-5.3,4.16-.25.25-.58.37-.92.37"/>
        <path class="cls-4" d="M159.34,46.4c-.21-.31-.11-.75.23-.97.34-.21.78-.11.97.22.19.33.08.75-.24.95-.32.2-.75.11-.96-.2Z"/>
        <path class="cls-3" d="M159.96,45.45c-.11,0-.22.03-.31.09-.14.09-.23.22-.27.38-.03.14,0,.29.08.41.17.26.51.33.78.16.26-.16.35-.5.2-.77-.07-.12-.19-.21-.33-.25-.04-.01-.09-.02-.14-.02M159.93,46.84c-.27,0-.53-.13-.69-.37-.12-.18-.16-.39-.11-.61.05-.22.18-.42.38-.54.2-.13.43-.16.66-.11.21.05.39.19.5.37.22.39.1.89-.29,1.13-.14.09-.29.13-.44.13"/>
        <path class="cls-4" d="M155.18,49.96c-.27-.25-.27-.69,0-.98.28-.29.72-.3.98-.03.26.27.24.7-.02.96-.26.27-.69.29-.96.05Z"/>
        <path class="cls-3" d="M155.71,48.89c-.15,0-.31.07-.42.18-.12.12-.18.28-.17.44,0,.14.06.27.16.35.22.2.57.18.78-.04.22-.22.23-.56.02-.78-.09-.1-.22-.15-.36-.15h0ZM155.63,50.26c-.19,0-.39-.07-.54-.21-.15-.14-.24-.33-.25-.54,0-.23.08-.46.25-.63.16-.17.39-.27.61-.27s.41.09.55.24c.3.32.29.82-.03,1.15-.17.17-.39.26-.61.26"/>
        <path class="cls-3" d="M159.5,60.96s4.49-1.15,9.67,4.19l-.69-2.43s-3.93-7.96-8.98-1.75"/>
        <path class="cls-4" d="M176.19,63.96c.4,2.09,2.41,3.46,4.5,3.06,2.09-.4,3.46-2.42,3.06-4.5-.4-2.09-2.41-3.46-4.5-3.06-2.09.4-3.46,2.42-3.06,4.5Z"/>
        <path class="cls-3" d="M184.17,60.96s-4.49-1.15-9.67,4.19l.69-2.43s3.93-7.96,8.98-1.75"/>
        <path class="cls-3" d="M154.6,64.86l-3.52,1.34-.32,3.16,4.22-2.86-.38-1.64Z"/>
        <path class="cls-3" d="M189.07,64.86l3.52,1.34.32,3.16-4.22-2.86.38-1.64Z"/>
        <path class="cls-3" d="M159.85,64.4s1.97,2.34,6.01,2.02l1.65.21-4.1,2.64-3.47-.92-.09-3.96h0Z"/>
        <path class="cls-3" d="M183.82,64.4s-1.97,2.34-6.01,2.02l-1.65.21,4.1,2.64,3.47-.92.09-3.96h0Z"/>
        <path class="cls-3" d="M165.49,80.84l3.15,1.47h3.95l-1.44.63-3.52,1.33-.9,4.75-3.05-.94-1.64-3.47,1.74.35,2.09-1.49-.38-2.63Z"/>
        <path class="cls-3" d="M178.25,80.84l-3.15,1.47h-3.95l1.44.63,3.52,1.33.9,4.75,3.34-1.27,1.35-3.14-1.74.35-2.09-1.49.38-2.63Z"/>
        <path class="cls-3" d="M155.67,56.69l.68-1.31,1.93-.28,1.36-.64,2.59.41.88,2.31-.88.62-.64-2.39-1.74-.45-1.68.53-1.68.14-.82,1.06Z"/>
        <path class="cls-3" d="M188.01,56.85l-.69-1.31-1.92-.28-1.37-.64-2.58.42-.88,2.3.88.63.64-2.4,1.74-.45,1.68.53,1.68.14.82,1.06Z"/>
        <path class="cls-4" d="M158.4,61.29l1.84-1.14s3.79-.57,7.08,2.57l-.81-2.15-3.1-1.19-1.18-1.16-1.82.36h-1.05l-.96,2.7h0Z"/>
        <path class="cls-4" d="M185.27,61.29l-1.84-1.14s-3.79-.57-7.08,2.57l.81-2.15,3.1-1.19,1.18-1.16,1.82.36h1.05l.96,2.7h0Z"/>
        <path class="cls-4" d="M159.39,62.83s-.22,1.76.32,2.5c0,0,2.56,2.14,6.17,1.83,0,0,1.19-.76,1.45-1.14l.19.94-2.77,3.94-1.33-.3,1.63-2.14-1.36.55-3.27-.49-1.31-1.11-.7-1.69s-.31-1.74.99-2.9"/>
        <path class="cls-4" d="M184.28,62.83s.22,1.76-.32,2.5c0,0-2.56,2.14-6.17,1.83,0,0-1.19-.76-1.45-1.14l-.19.94,2.77,3.94,1.33-.3-1.63-2.14,1.36.55,3.27-.49,1.31-1.11.7-1.69s.31-1.74-.99-2.9"/>
        <path class="cls-4" d="M189.77,85.81c-1.88,1.96-3.99,3.69-6.28,5.15-.59.38-1.32.24-1.61-.29-.35-.98-.71-1.95-1.09-2.92-.3-.51-.18-1.14.26-1.41,1.75-1.09,3.37-2.37,4.85-3.8.37-.36,1.01-.35,1.43.04.83.55,1.68,1.09,2.53,1.61.43.38.4,1.12-.08,1.62"/>
        <path class="cls-3" d="M186.56,82.51c-.19,0-.36.07-.5.19-1.48,1.45-3.13,2.74-4.89,3.84-.33.21-.41.7-.18,1.09.4,1,.76,1.99,1.11,2.96.08.14.25.26.46.31.26.07.55.01.8-.15,2.28-1.45,4.37-3.17,6.24-5.11.21-.22.33-.51.32-.78,0-.2-.09-.38-.22-.5-.82-.5-1.67-1.04-2.5-1.59-.19-.17-.42-.26-.63-.26M182.78,91.41c-.12,0-.23-.01-.34-.04-.34-.08-.61-.29-.77-.58-.36-1-.72-1.98-1.1-2.95-.35-.59-.2-1.36.36-1.71,1.73-1.08,3.35-2.35,4.81-3.77.47-.46,1.24-.44,1.76.03.79.52,1.64,1.06,2.49,1.59.27.23.4.53.41.87.02.4-.15.82-.45,1.13-1.89,1.97-4.02,3.71-6.33,5.18-.26.16-.55.25-.84.25Z"/>
        <path class="cls-4" d="M183.23,87.1c.19.28.1.68-.21.88-.31.2-.71.1-.88-.2s-.07-.68.22-.86c.29-.18.68-.1.87.18Z"/>
        <path class="cls-3" d="M182.71,86.94c-.09,0-.19.03-.28.08-.24.15-.32.46-.18.7.06.11.17.19.3.23.14.04.28.01.41-.07.13-.08.21-.2.24-.34.03-.13,0-.26-.07-.37-.1-.15-.26-.23-.43-.23M182.68,88.2c-.06,0-.12,0-.18-.02-.19-.05-.35-.17-.45-.34-.2-.36-.09-.8.26-1.02.35-.22.8-.12,1.03.22.11.16.15.36.1.55-.04.21-.17.38-.35.49-.13.08-.27.12-.41.12Z"/>
        <path class="cls-4" d="M187.01,83.87c.25.22.25.63,0,.89s-.66.27-.89.03c-.23-.24-.22-.63.02-.87.24-.24.63-.27.87-.04"/>
        <path class="cls-3" d="M186.6,83.84c-.14,0-.28.05-.38.16-.2.2-.21.51-.02.71.08.09.2.14.33.14.14,0,.28-.06.38-.17.11-.11.16-.25.16-.39,0-.13-.05-.24-.14-.32-.09-.08-.21-.12-.33-.12M186.53,85.08c-.19,0-.37-.08-.5-.21-.28-.29-.27-.75.02-1.04.29-.29.74-.31,1.04-.05.14.12.22.3.22.49,0,.21-.08.42-.23.57-.15.15-.35.24-.55.24Z"/>
        <path class="cls-4" d="M153.98,85.81c1.88,1.96,3.99,3.69,6.28,5.15.59.38,1.32.24,1.61-.29.35-.98.71-1.95,1.09-2.92.3-.51.18-1.14-.26-1.41-1.75-1.09-3.37-2.37-4.85-3.8-.37-.36-1.01-.35-1.43.04-.83.55-1.68,1.09-2.53,1.61-.43.38-.4,1.12.08,1.62"/>
        <path class="cls-3" d="M154.15,85.65c1.86,1.94,3.96,3.66,6.24,5.11.25.16.54.21.8.15.21-.05.38-.18.47-.35.33-.95.7-1.93,1.07-2.89.25-.43.17-.92-.17-1.12-1.76-1.1-3.4-2.39-4.89-3.84-.28-.27-.78-.26-1.1.04-.86.58-1.72,1.12-2.57,1.64-.1.1-.18.27-.19.47-.01.27.11.56.32.78M160.97,91.41c-.29,0-.58-.09-.84-.25-2.31-1.47-4.43-3.21-6.32-5.18-.3-.32-.47-.73-.45-1.13.01-.33.15-.63.38-.84.88-.54,1.73-1.09,2.56-1.63.48-.45,1.25-.47,1.72-.01,1.46,1.42,3.08,2.69,4.81,3.77.56.35.71,1.11.34,1.74-.36.92-.72,1.9-1.07,2.88-.18.33-.45.53-.79.62-.11.03-.22.04-.34.04"/>
        <path class="cls-4" d="M160.51,87.1c-.19.28-.1.68.21.88.31.2.71.1.88-.2s.07-.68-.22-.86c-.29-.18-.68-.1-.87.18Z"/>
        <path class="cls-3" d="M161.04,86.94c-.17,0-.33.08-.43.23-.07.11-.1.24-.07.37.03.14.12.26.24.34.13.08.27.1.41.07.13-.03.24-.11.3-.23.14-.24.06-.55-.18-.7-.09-.05-.18-.08-.28-.08M161.07,88.2c-.14,0-.28-.04-.41-.12-.18-.11-.31-.29-.35-.49-.04-.19,0-.39.1-.55.23-.34.68-.43,1.03-.22.35.21.47.66.26,1.02-.1.17-.26.29-.45.34-.06.02-.12.02-.18.02Z"/>
        <path class="cls-4" d="M156.74,83.87c-.25.22-.25.63,0,.89s.66.27.89.03.22-.63-.02-.87c-.24-.24-.63-.27-.87-.04"/>
        <path class="cls-3" d="M157.15,83.84c-.12,0-.23.04-.33.12-.09.08-.14.2-.15.32,0,.14.05.29.16.39.1.11.24.17.38.17.13,0,.24-.05.33-.14.19-.2.18-.51-.02-.71-.1-.11-.24-.16-.38-.16M157.22,85.08c-.21,0-.41-.09-.56-.24-.15-.15-.23-.36-.23-.57,0-.19.09-.37.22-.49.29-.27.75-.25,1.04.05.29.29.3.75.02,1.04-.13.14-.31.21-.5.21h0Z"/>
        <path class="cls-3" d="M173.72,63.64l-.93-1.77v-3.28l1.66-1.79-1.66,1-.87.17-.87-.17-1.66-1,1.66,1.79v3.28l-.93,1.77-1.64-.92,1.5,3.26.74-.31,1.2,2.02,1.2-2.02.74.31,1.5-3.26-1.64.92Z"/>
      </g>
    </g>
  </g>
</svg>